<?xml version="1.0" encoding="UTF-8"?>
<!DOCTYPE svg PUBLIC "-//W3C//DTD SVG 1.1//EN" "http://www.w3.org/Graphics/SVG/1.1/DTD/svg11.dtd">
<!-- Creator: CorelDRAW 2019 (64-Bit) -->
<svg xmlns="http://www.w3.org/2000/svg" xml:space="preserve" width="29.6332mm" height="29.6332mm" version="1.1"
    viewBox="0 0 2963.32 2963.32"
    xmlns:xlink="http://www.w3.org/1999/xlink"
    xmlns:xodm="http://www.corel.com/coreldraw/odm/2003" style="shape-rendering:geometricPrecision;text-rendering:geometricPrecision;image-rendering:optimizeQuality;fill-rule:evenodd;clip-rule:evenodd;" >
 <defs>
  <style type="text/css">
   <![CDATA[
    .fil2 {fill:none}
    .fil0 {fill:#105F9F}
    .fil1 {fill:#B4D2EC}
   ]]>
  </style>
 </defs>
 <g id="Layer_x0020_1">
  <metadata id="CorelCorpID_0Corel-Layer"/>
  <g id="_1821056177472">
   <path class="fil0" d="M45.85 606.45l7.93 156.92c6.52,65.49 12.83,148.82 34.26,214.54 63.74,195.56 158.21,359.37 271.82,525.38 81.3,118.8 138.05,192.05 227.98,301.5 42.3,51.49 76.38,96.51 126.48,145.29 122.18,118.97 266.04,293.31 404.85,398 112.33,84.71 165.5,143.99 305.88,239.11 162.02,109.78 333.4,211.99 530.02,278.18 69.87,23.52 158.71,30.41 220.73,55.63l157.49 0c84.58,-33.44 143.76,-22.69 234.37,-78.51 440.52,-271.34 330.79,-362.49 28.18,-655.87 -51.75,-50.15 -88.23,-108.14 -142.51,-155.55 -55.52,-48.48 -98.58,-102.07 -200.07,-100.5 -87.76,1.37 -148.73,56.38 -208.54,92.23 -129.2,77.42 -132.57,105.03 -190.29,77.22 -45.37,-21.85 -149.52,-100.77 -176.18,-124.24l-596.24 -594.09c-66.48,-79.52 -205.51,-239.38 -240.64,-350.62 42.43,-64.74 100.07,-131.12 150.31,-196.49 181.3,-235.96 -57,-350.72 -204.42,-514.04 -29.22,-32.4 -49.63,-58.18 -79.22,-89.65 -135.95,-144.59 -272.15,-243.15 -443.22,-55.85 -227.19,279.06 -230.38,278.14 -218.97,431.41z" style="fill:#105F9F;" />
   <g>
    <path class="fil1" d="M2900.67 1408.63c-159.68,-773.45 -628.22,-1276.78 -1470.92,-1364.65 -202.47,-21.11 -405.95,166.65 16.14,241.64 1257.21,223.36 1163.99,1269.66 1278.39,1385.99 111.14,113 225.33,-23.86 190.25,-209.63l-13.86 -53.35z" style="fill:#B4D2EC;" />
    <path class="fil1" d="M1481.18 821.13c816.58,211.51 540.32,1047.82 826.37,853.52 246.16,-167.19 -237.06,-1095.86 -921.48,-1089.51 -140.28,1.3 -347.02,159.04 38.97,226.23l56.14 9.76z" style="fill:#B4D2EC;" />
   </g>
  </g>
  <rect class="fil2" x="-0.01" y="-0" width="2963.33" height="2963.33"/>
 </g>
</svg>
