<svg xmlns="http://www.w3.org/2000/svg" xmlns:xlink="http://www.w3.org/1999/xlink" viewBox="0 0 350 350" ><pattern width="30.4" height="33.6" patternUnits="userSpaceOnUse" id="A" viewBox="0 -33.6 30.4 33.6" overflow="visible"><path d="M0-33.6h30.4V0H0z" fill="#6bb0e8"/></pattern><pattern width="30.4" height="33.6" patternUnits="userSpaceOnUse" id="B" viewBox="0 -33.6 30.4 33.6" overflow="visible"><path d="M0-33.6h30.4V0H0z" fill="#105fa0"/></pattern><path d="M123.3 148.4h117.5v72.3H123.3z" fill="#b4d3ed"/><path d="M145.3 102.2h70.1v28.2h-70.1z" fill="#6bb0e8"/><path d="M134.9 177.3h24.7v43.3h-24.7z" fill="#105fa0"/><path d="M136.5 178.8h21.4v40.3h-21.4z" fill="#6bb0e8"/><circle cx="139.4" cy="200.6" r="1.3" fill="#fff"/><pattern id="C" xlink:href="#B" patternTransform="matrix(1 0 0 1 -7.1252 -8.4879)"/><path d="M170.4 161h61.7v39.5h-61.7z" fill="url(#C)"/><path d="M171.8 163.2h58.9v35.2h-58.9z" fill="#6bb0e8"/><pattern id="D" xlink:href="#B" patternTransform="matrix(1 0 0 1 -7.1252 -8.4879)"/><path d="M113.3 136.8h134.2v11.6H113.3z" fill="url(#D)" stroke="#fff" stroke-width="2" stroke-miterlimit="10"/><path d="M121.1 130.4h118.5v6.4H121.1z" fill="#1976d2"/><g stroke="#fff" stroke-miterlimit="10" fill="none"><path d="M121.1 130.4h118.5v6.4H121.1z" stroke-width="2"/><path d="M184.7 163.6L176 176m15.3-12.4l-13.9 19.7" stroke-linecap="round"/><path d="M147.3 104h66.3v23.6h-66.3z" stroke-width=".75"/></g><path d="M179 119.5c-.4-.1-.7-.2-1-.4s-.6-.4-.9-.7l.8-1c.3.4.6.6 1 .8s.8.3 1.2.3c.6 0 1-.1 1.3-.3s.4-.6.4-1h0c0-.3-.1-.5-.2-.7s-.3-.3-.5-.4-.5-.2-.9-.2h-.1-.1c-.6-.1-1-.2-1.3-.3s-.6-.4-.9-.7c-.2-.3-.4-.8-.4-1.4h0c0-.6.1-1.1.3-1.5s.5-.7 1-.9c.4-.2 1-.3 1.6-.3.3 0 .6 0 .9.1s.6.1.8.3c.3.1.5.3.8.5l-.8 1c-.3-.2-.6-.4-.9-.5s-.6-.2-.9-.2c-.5 0-1 .1-1.2.3-.3.2-.4.6-.4 1h0c0 .3.1.6.2.7.2.2.4.3.6.4s.6.2 1 .3h.1.1.1c.5.1.9.2 1.2.4s.6.4.8.7.3.8.3 1.4h0c0 .6-.1 1.1-.3 1.4-.2.4-.6.7-1 .9-.5.2-1 .3-1.7.3-.2-.2-.6-.2-1-.3zm.7-10.1h1.3v1.4h-1.3v-1.4zm0 9.7h1.3v1.5h-1.3v-1.5z" fill="#fff"/><circle cx="180.4" cy="114.7" r="7.9" fill="none" stroke="#fff"/><pattern id="E" xlink:href="#A" patternTransform="matrix(1 0 0 1 -7.1252 -8.4879)"/><circle cx="163.5" cy="117.9" r="6.3" fill="url(#E)" stroke="#fff"/><path d="M162.9 120.5c-.2-.1-.4-.1-.6-.3-.2-.1-.4-.3-.5-.4l.5-.6c.2.2.4.4.6.5s.5.2.7.2c.4 0 .6-.1.8-.2s.3-.3.3-.6h0c0-.2 0-.3-.1-.4s-.2-.2-.3-.2-.3-.1-.5-.1c-.3-.1-.6-.1-.8-.2s-.4-.2-.5-.4-.2-.5-.2-.9h0c0-.4.1-.7.2-.9s.3-.4.6-.5.6-.2 1-.2a.9.9 0 0 1 .5.1c.2.1.3.1.5.2s.3.2.5.3l-.5.6c-.2-.1-.4-.2-.5-.3s-.3-.1-.5-.1c-.3 0-.6.1-.7.2-.2.1-.2.3-.2.6h0c0 .2 0 .3.1.4s.2.2.4.2.3.1.6.2.5.1.7.2.4.2.5.4.2.5.2.8h0c0 .4-.1.6-.2.9-.1.2-.3.4-.6.5s-.6.2-1 .2c-.6-.1-.8-.1-1-.2zm.4-6h.8v.9h-.8v-.9zm0 5.8h.8v.9h-.8v-.9z" fill="#fff"/><pattern id="F" xlink:href="#A" patternTransform="matrix(1 0 0 1 -7.1252 -8.4879)"/><circle cx="197.3" cy="117.9" r="6.3" fill="url(#F)" stroke="#fff"/><path d="M196.7 120.5c-.2-.1-.4-.1-.6-.3s-.4-.3-.5-.4l.5-.6c.2.2.4.4.6.5s.5.2.7.2c.4 0 .6-.1.8-.2s.3-.3.3-.6h0c0-.2 0-.3-.1-.4s-.2-.2-.3-.2c-.1-.1-.3-.1-.5-.1-.3-.1-.6-.1-.8-.2s-.4-.2-.5-.4-.2-.5-.2-.9h0c0-.4.1-.7.2-.9s.3-.4.6-.5.6-.2 1-.2a.9.9 0 0 1 .5.1c.2 0 .3.1.5.2s.3.2.5.3l-.5.6c-.2-.1-.4-.2-.5-.3-.2-.1-.3-.1-.5-.1-.3 0-.6.1-.7.2-.2.1-.2.3-.2.6h0c0 .2 0 .3.1.4s.2.2.4.2c.1 0 .3.1.6.2s.5.1.7.2.4.2.5.4.2.5.2.8h0c0 .4-.1.6-.2.9-.1.2-.3.4-.6.5s-.6.2-1 .2c-.5-.1-.8-.1-1-.2zm.4-6h.8v.9h-.8v-.9zm0 5.8h.8v.9h-.8v-.9z" fill="#fff"/></svg>