<svg xmlns="http://www.w3.org/2000/svg" xmlns:xlink="http://www.w3.org/1999/xlink" viewBox="0 0 350 350" xmlns:v="https://vecta.io/nano"><style><![CDATA[.F{fill:#b4d3ed}.G{clip-path:url(#X)}.H{fill:#6bb0e8}.I{clip-path:url(#M)}.J{clip-path:url(#D)}.K{fill:url(#A)}.L{fill:#105fa0}.M{clip-path:url(#F)}.N{clip-path:url(#S)}.O{clip-path:url(#V)}.P{clip-path:url(#H)}.Q{clip-path:url(#J)}.R{clip-path:url(#O)}.S{clip-path:url(#Q)}]]></style><pattern y="350" width="30.4" height="33.6" patternUnits="userSpaceOnUse" id="A" viewBox="0 -33.6 30.4 33.6" overflow="visible"><path d="M0-33.6h30.4V0H0z" class="L"/></pattern><defs><path id="B" transform="matrix(.5 -.866 .866 .5 -47.8205 201.6929)" d="M137.3 126.9h26.9v30.8h-26.9z"/><path id="C" d="M170.4 122.3h13.1v14.5h-13.1z"/></defs><clipPath id="D"><use xlink:href="#B"/></clipPath><g class="J H"><use xlink:href="#C"/></g><g class="J H"><path d="M170.4 136.8h13.1v14.5h-13.1z"/></g><g class="J H"><path d="M170.4 151.3h13.1v14.5h-13.1z"/></g><g class="J H"><path d="M157.3 122.3h13.1v14.5h-13.1z"/></g><g class="J H"><path d="M157.3 136.8h13.1v14.5h-13.1z"/></g><g class="J H"><path d="M157.3 151.3h13.1v14.5h-13.1z"/></g><g class="J H"><path d="M144.1 122.3h13.1v14.5h-13.1z"/></g><g class="J H"><path d="M144.1 136.8h13.1v14.5h-13.1z"/></g><g class="J H"><path d="M144.1 151.3h13.1v14.5h-13.1z"/></g><g class="J H"><path d="M131 122.3h13.1v14.5H131z"/></g><g class="J H"><path d="M131 136.8h13.1v14.5H131z"/></g><g class="J H"><path d="M131 151.3h13.1v14.5H131z"/></g><g class="J H"><path d="M117.8 122.3h13.1v14.5h-13.1z"/></g><g class="J H"><path d="M117.8 136.8h13.1v14.5h-13.1z"/></g><g class="J H"><path d="M117.8 151.3h13.1v14.5h-13.1z"/></g><path d="M157.6 162.5l-27.8-16 14.1-24.5 27.8 16-14.1 24.5zm-26-16.5l25.5 14.7 12.8-22.2-25.5-14.7-12.8 22.2z" class="K"/><defs><path id="E" d="M142.5 164.7l-.2-.3c-1.1-1.5-.8-3.6.6-4.7l3.1-2.4c1.5-1.1 3.6-.8 4.7.6l.2.3c1.1 1.5.8 3.6-.6 4.7l-3.1 2.4c-1.5 1.2-3.6.9-4.7-.6z"/></defs><clipPath id="F"><use xlink:href="#E"/></clipPath><g class="M F"><path d="M144.1 151.3h13.1v14.5h-13.1z"/></g><g class="M F"><path d="M144.1 165.9h13.1v14.5h-13.1z"/></g><g class="M F"><path d="M131 151.3h13.1v14.5H131z"/></g><g class="M F"><path d="M131 165.9h13.1v14.5H131z"/></g><path d="M145.2 166.6h-.6c-1.1-.1-2.1-.7-2.8-1.6h0c-1.4-1.8-1-4.5.8-5.9l2.9-2.2c1.8-1.4 4.5-1 5.9.8.7.9 1 2 .8 3.1-.1 1.1-.7 2.1-1.6 2.8l-2.9 2.2c-.7.5-1.6.8-2.5.8zm-2.3-2.4c.5.6 1.1 1 1.9 1.1s1.5-.1 2.1-.6l2.9-2.2c.6-.5 1-1.1 1.1-1.9s-.1-1.5-.6-2.1c-1-1.3-2.8-1.5-4-.5l-2.9 2.2c-1.3.9-1.5 2.7-.5 4h0z" class="K"/><defs><path id="G" d="M152 177.3l-.2-.3c-1.1-1.5-.8-3.6.6-4.7l3.1-2.4c1.5-1.1 3.6-.8 4.7.6l.2.3c1.1 1.5.8 3.6-.6 4.7l-3.1 2.4c-1.4 1.2-3.5.9-4.7-.6z"/></defs><clipPath id="H"><use xlink:href="#G"/></clipPath><g class="P F"><path d="M157.3 165.9h13.1v14.5h-13.1z"/></g><g class="P F"><path d="M144.1 165.9h13.1v14.5h-13.1z"/></g><path d="M154.8 179.2h-.6c-1.1-.1-2.1-.7-2.8-1.6s-1-2-.8-3.1c.1-1.1.7-2.1 1.6-2.8l2.9-2.2c.9-.7 2-1 3.1-.8 1.1.1 2.1.7 2.8 1.6s1 2 .8 3.1c-.1 1.1-.7 2.1-1.6 2.8l-2.9 2.2c-.8.5-1.6.8-2.5.8zm2.8-9.2c-.6 0-1.2.2-1.7.6l-2.9 2.2c-.6.5-1 1.1-1.1 1.9s.1 1.5.6 2.1h0c.5.6 1.1 1 1.9 1.1s1.5-.1 2.1-.6l2.9-2.2c.6-.5 1-1.1 1.1-1.9s-.1-1.5-.6-2.1c-.6-.8-1.4-1.1-2.3-1.1z" class="K"/><defs><path id="I" d="M145.9 171.7l-.2-.3c-1.1-1.5-.8-3.6.6-4.7l4.6-3.5c1.5-1.1 3.6-.8 4.7.6l.2.3c1.1 1.5.8 3.6-.6 4.7l-4.6 3.5c-1.4 1.2-3.5.9-4.7-.6z"/></defs><clipPath id="J"><use xlink:href="#I"/></clipPath><g class="Q F"><path d="M144.1 151.3h13.1v14.5h-13.1z"/></g><g class="Q F"><path d="M144.1 165.9h13.1v14.5h-13.1z"/></g><path d="M148.7 173.7a4.22 4.22 0 0 1-3.3-1.6h0c-.7-.9-1-2-.8-3.1.1-1.1.7-2.1 1.6-2.8l4.3-3.3c1.8-1.4 4.5-1 5.9.8s1 4.5-.8 5.9l-4.3 3.3c-.9.5-1.8.8-2.6.8zm-2.3-2.5c1 1.3 2.8 1.5 4 .5l4.3-3.3c1.3-1 1.5-2.8.5-4-1-1.3-2.8-1.5-4-.5l-4.3 3.3c-.6.5-1 1.1-1.1 1.9s.1 1.5.6 2.1h0z" class="K"/><pattern id="K" xlink:href="#A" patternTransform="matrix(1 0 0 1 -4.8282 -23.7426)"/><path d="M173 178.3s-.1 0 0 0c-.6-.1-12.8-1.6-20.2-18.6-.1-.3 0-.7.3-.9.3-.1.7 0 .9.3 7.1 16.3 19 17.8 19.1 17.8.4 0 .6.4.6.7-.1.5-.4.7-.7.7z" fill="url(#K)"/><path d="M119.075 145.95l19.05-32.995 8.833 5.1-19.05 32.995z" class="L"/><defs><path id="L" transform="matrix(-.5835 -.8121 .8121 -.5835 201.1719 383.6322)" d="M185.5 124.8h26.9v30.8h-26.9z"/></defs><clipPath id="M"><use xlink:href="#L"/></clipPath><g class="I H"><path d="M209.8 107.8h13.1v14.5h-13.1z"/></g><g class="I H"><path d="M209.8 122.3h13.1v14.5h-13.1z"/></g><g class="I H"><path d="M209.8 136.8h13.1v14.5h-13.1z"/></g><g class="I H"><path d="M209.8 151.3h13.1v14.5h-13.1z"/></g><g class="I H"><path d="M196.7 107.8h13.1v14.5h-13.1z"/></g><g class="I H"><path d="M196.7 122.3h13.1v14.5h-13.1z"/></g><g class="I H"><path d="M196.7 136.8h13.1v14.5h-13.1z"/></g><g class="I H"><path d="M196.7 151.3h13.1v14.5h-13.1z"/></g><g class="I H"><path d="M183.5 107.8h13.1v14.5h-13.1z"/></g><g class="I H"><path d="M183.5 122.3h13.1v14.5h-13.1z"/></g><g class="I H"><path d="M183.5 136.8h13.1v14.5h-13.1z"/></g><g class="I H"><path d="M183.5 151.3h13.1v14.5h-13.1z"/></g><g class="I H"><path d="M170.4 107.8h13.1v14.5h-13.1z"/></g><g class="I H"><use xlink:href="#C"/></g><g class="I H"><path d="M170.4 136.8h13.1v14.5h-13.1z"/></g><g class="I H"><path d="M170.4 151.3h13.1v14.5h-13.1z"/></g><path d="M194.2 161.1l-16.5-22.9 26.1-18.7 16.5 22.9-26.1 18.7zm-14.7-22.7l15 20.8 23.9-17.2-15-20.8-23.9 17.2z" class="K"/><defs><path id="N" d="M209.5 161.8l.2-.3c1-1.6.5-3.7-1.1-4.6l-3.3-2.1c-1.6-1-3.7-.5-4.6 1.1l-.2.3c-1 1.6-.5 3.7 1.1 4.6l3.3 2.1c1.5.9 3.6.4 4.6-1.1z"/></defs><clipPath id="O"><use xlink:href="#N"/></clipPath><g class="R F"><path d="M209.8 151.3h13.1v14.5h-13.1z"/></g><g class="R F"><path d="M196.7 151.3h13.1v14.5h-13.1z"/></g><path d="M206.5 164c-.8 0-1.5-.2-2.2-.6l-3.1-1.9c-2-1.2-2.6-3.8-1.4-5.8.6-.9 1.5-1.6 2.6-1.9s2.2-.1 3.2.5l3.1 1.9c2 1.2 2.6 3.8 1.4 5.8-.6.9-1.5 1.6-2.6 1.9-.3 0-.7.1-1 .1zm-3-9c-.2 0-.5 0-.7.1-.8.2-1.4.6-1.8 1.3a3 3 0 0 0 .9 4l3.1 1.9a3 3 0 0 0 4-.9 3 3 0 0 0-.9-4l-3.1-1.9c-.5-.3-1-.5-1.5-.5z" class="K"/><defs><path id="P" d="M201.2 175.2l.2-.3c1-1.6.5-3.7-1.1-4.6l-3.3-2.1c-1.6-1-3.7-.5-4.6 1.1l-.2.3c-1 1.6-.5 3.7 1.1 4.6l3.3 2.1c1.5 1 3.6.5 4.6-1.1z"/></defs><clipPath id="Q"><use xlink:href="#P"/></clipPath><g class="S F"><path d="M196.7 165.9h13.1v14.5h-13.1z"/></g><g class="S F"><path d="M183.5 165.9h13.1v14.5h-13.1z"/></g><path d="M198.2 177.4a4.56 4.56 0 0 1-2.2-.6l-3.1-1.9c-.9-.6-1.6-1.5-1.9-2.6s-.1-2.2.5-3.2c.6-.9 1.5-1.6 2.6-1.9s2.2-.1 3.2.5l3.1 1.9c.9.6 1.6 1.5 1.9 2.6s.1 2.2-.5 3.2c-.8 1.3-2.1 2-3.6 2zm-3-8.9c-.2 0-.5 0-.7.1-.8.2-1.4.6-1.8 1.3s-.5 1.4-.3 2.2.6 1.4 1.3 1.8l3.1 1.9c.7.4 1.4.5 2.2.3s1.4-.6 1.8-1.3h0c.4-.7.5-1.4.3-2.2s-.6-1.4-1.3-1.8l-3.1-1.9c-.4-.3-1-.4-1.5-.4z" class="K"/><defs><path id="R" d="M206.7 169.1l.2-.3c1-1.6.5-3.7-1.1-4.6l-4.9-3c-1.6-1-3.7-.5-4.6 1.1l-.2.3c-1 1.6-.5 3.7 1.1 4.6l4.9 3c1.5 1 3.6.5 4.6-1.1z"/></defs><clipPath id="S"><use xlink:href="#R"/></clipPath><g class="N F"><path d="M196.7 151.3h13.1v14.5h-13.1z"/></g><g class="N F"><path d="M196.7 165.9h13.1v14.5h-13.1z"/></g><g class="N F"><path d="M183.5 151.3h13.1v14.5h-13.1z"/></g><g class="N F"><path d="M183.5 165.9h13.1v14.5h-13.1z"/></g><path d="M203.8 171.3c-.8 0-1.5-.2-2.2-.6l-4.6-2.9c-.9-.6-1.6-1.5-1.9-2.6s-.1-2.2.5-3.2c.6-.9 1.5-1.6 2.6-1.9s2.2-.1 3.2.5l4.6 2.9c.9.6 1.6 1.5 1.9 2.6s.1 2.2-.5 3.2c-.6.9-1.5 1.6-2.6 1.9-.4 0-.7.1-1 .1zm-4.7-10c-1 0-1.9.5-2.5 1.4-.4.7-.5 1.4-.3 2.2s.6 1.4 1.3 1.8l4.6 2.9c.7.4 1.4.5 2.2.3s1.4-.6 1.8-1.3h0c.4-.7.5-1.4.3-2.2s-.6-1.4-1.3-1.8l-4.6-2.9c-.4-.2-1-.4-1.5-.4z" class="K"/><pattern id="T" xlink:href="#A" patternTransform="matrix(1 0 0 1 -4.8282 -23.7426)"/><path d="M180.4 178.3c-.3 0-.6-.2-.6-.5-.1-.4.1-.7.5-.8.1 0 11.8-2.7 17.2-19.6.1-.3.5-.5.8-.4s.5.5.4.8c-5.7 17.6-17.7 20.4-18.2 20.5h-.1z" fill="url(#T)"/><path d="M200.315 115.752l8.283-5.952 22.231 30.941-8.283 5.952z" class="L"/><defs><path id="U" d="M156 195.1h39.5v12.2H156z"/></defs><clipPath id="V"><use xlink:href="#U"/></clipPath><g class="O L"><path d="M183.5 194.9h13.1v14.5h-13.1z"/></g><g class="O L"><path d="M170.4 194.9h13.1v14.5h-13.1z"/></g><g class="O L"><path d="M157.3 194.9h13.1v14.5h-13.1z"/></g><g class="O L"><path d="M144.1 194.9h13.1v14.5h-13.1z"/></g><path d="M196.2 208h-40.8v-13.5h40.8V208zm-39.5-1.3h38.2v-10.9h-38.2v10.9z" class="K"/><defs><path id="W" d="M164.1 195.1v-18.9s-13.1-8.4-11.8-28.7l-.1-8.2c0-1.4.6-2.8 1.8-3.6.9-.6 2.2-.9 3.7-.2 1.7.8 2.8 2.6 2.9 4.6l.6 13.6s2.9-4 2.8-9.3v-19.3c0-1.6.9-3.1 2.3-3.8 1.5-.7 3.5-.7 6 2h.1c0-.8-.1-5.6 4.1-5.2 0 0 4.4-.2 4.1 5.2 0 0 .1.1.1 0 .6-.9 3.9-5.8 6.8-2.1.9 1.1 1.4 2.6 1.4 4l.3 9.8s4-6 7-1.6c.6.8.9 1.7 1.1 2.7.9 4.7 3.6 23.5-7.8 39.8l.1 19.2h-25.5z"/></defs><clipPath id="X"><use xlink:href="#W"/></clipPath><g class="G F"><path d="M196.7 107.8h13.1v14.5h-13.1z"/></g><g class="G F"><path d="M196.7 122.3h13.1v14.5h-13.1z"/></g><g class="G F"><path d="M196.7 136.8h13.1v14.5h-13.1z"/></g><g class="G F"><path d="M196.7 151.3h13.1v14.5h-13.1z"/></g><g class="G F"><path d="M196.7 165.9h13.1v14.5h-13.1z"/></g><g class="G F"><path d="M196.7 180.4h13.1v14.5h-13.1z"/></g><g class="G F"><path d="M196.7 194.9h13.1v14.5h-13.1z"/></g><g class="G F"><path d="M183.5 107.8h13.1v14.5h-13.1z"/></g><g class="G F"><path d="M183.5 122.3h13.1v14.5h-13.1z"/></g><g class="G F"><path d="M183.5 136.8h13.1v14.5h-13.1z"/></g><g class="G F"><path d="M183.5 151.3h13.1v14.5h-13.1z"/></g><g class="G F"><path d="M183.5 165.9h13.1v14.5h-13.1z"/></g><g class="G F"><path d="M183.5 180.4h13.1v14.5h-13.1z"/></g><g class="G F"><path d="M183.5 194.9h13.1v14.5h-13.1z"/></g><g class="G F"><path d="M170.4 107.8h13.1v14.5h-13.1z"/></g><g class="G F"><use xlink:href="#C"/></g><g class="G F"><path d="M170.4 136.8h13.1v14.5h-13.1z"/></g><g class="G F"><path d="M170.4 151.3h13.1v14.5h-13.1z"/></g><g class="G F"><path d="M170.4 165.9h13.1v14.5h-13.1z"/></g><g class="G F"><path d="M170.4 180.4h13.1v14.5h-13.1z"/></g><g class="G F"><path d="M170.4 194.9h13.1v14.5h-13.1z"/></g><g class="G F"><path d="M157.3 107.8h13.1v14.5h-13.1z"/></g><g class="G F"><path d="M157.3 122.3h13.1v14.5h-13.1z"/></g><g class="G F"><path d="M157.3 136.8h13.1v14.5h-13.1z"/></g><g class="G F"><path d="M157.3 151.3h13.1v14.5h-13.1z"/></g><g class="G F"><path d="M157.3 165.9h13.1v14.5h-13.1z"/></g><g class="G F"><path d="M157.3 180.4h13.1v14.5h-13.1z"/></g><g class="G F"><path d="M157.3 194.9h13.1v14.5h-13.1z"/></g><g class="G F"><path d="M144.1 107.8h13.1v14.5h-13.1z"/></g><g class="G F"><path d="M144.1 122.3h13.1v14.5h-13.1z"/></g><g class="G F"><path d="M144.1 136.8h13.1v14.5h-13.1z"/></g><g class="G F"><path d="M144.1 151.3h13.1v14.5h-13.1z"/></g><g class="G F"><path d="M144.1 165.9h13.1v14.5h-13.1z"/></g><g class="G F"><path d="M144.1 180.4h13.1v14.5h-13.1z"/></g><g class="G F"><path d="M144.1 194.9h13.1v14.5h-13.1z"/></g><path d="M190.3 195.8h-26.9v-19.2c-2-1.4-13-10.3-11.8-29.1l-.1-8.2c0-1.7.8-3.3 2.1-4.2s2.8-.9 4.4-.2c1.9.9 3.2 2.9 3.3 5.1l.5 11.4c.8-1.6 1.7-4.1 1.6-7V125c0-1.9 1.1-3.6 2.7-4.4 1.3-.6 3.4-.9 5.7 1.2.1-1.1.5-2.5 1.4-3.4.8-.8 1.9-1.1 3.3-1 .3 0 2 0 3.3 1.3a4.34 4.34 0 0 1 1.3 2.8c.9-1.1 2.2-2.3 3.8-2.3 1.1-.1 2.2.5 3.1 1.6.9 1.2 1.5 2.7 1.5 4.4l.2 8c.9-1 2.3-2.1 3.8-2.1 1.2 0 2.2.6 3.1 1.9.6.8 1 1.8 1.2 2.9 1 5.3 3.5 23.9-7.8 40.1l.3 19.8zm-25.5-1.3H189l-.1-18.8.1-.2c11.2-15.9 8.7-34.1 7.7-39.3-.2-.9-.5-1.8-1-2.4-.6-.9-1.3-1.3-2-1.3-1.6 0-3.4 2.1-3.9 2.9l-1.1 1.7-.3-11.8c0-1.4-.5-2.6-1.2-3.6-.6-.8-1.3-1.2-2-1.1-1.4.1-2.9 1.7-3.8 3.1-.2.3-.5.4-.8.3s-.5-.4-.5-.7c.1-1.6-.3-2.8-1-3.6-1-1-2.4-1-2.4-1h0 0c-1-.1-1.8.1-2.3.7-1.2 1.1-1.1 3.4-1.1 3.8 0 .3-.2.6-.4.7-.3.1-.6 0-.8-.2-1.8-2-3.6-2.6-5.2-1.9-1.2.6-1.9 1.8-1.9 3.2v19.3c.2 5.4-2.8 9.5-2.9 9.7l-1.1 1.5-.7-15.5c-.1-1.7-1.1-3.3-2.5-4-1.1-.6-2.1-.5-3.1.1s-1.5 1.8-1.5 3.1l.1 8.3h0c-1.3 19.7 11.4 28 11.5 28.1l.3.2v.4 18.3z" class="K"/><pattern id="Y" xlink:href="#A" patternTransform="matrix(1 0 0 1 -4.8282 -23.7426)"/><path d="M172.4 146.9c-.4 0-.6-.3-.6-.6v-22.9c0-.4.3-.6.6-.6.4 0 .6.3.6.6v22.9c.1.3-.2.6-.6.6z" fill="url(#Y)"/><pattern id="Z" xlink:href="#A" patternTransform="matrix(1 0 0 1 -4.8282 -23.7426)"/><path d="M180.8 146.9c-.4 0-.6-.3-.6-.6v-22.9c0-.4.3-.6.6-.6.4 0 .6.3.6.6v22.9a.65.65 0 0 1-.6.6z" fill="url(#Z)"/><pattern id="a" xlink:href="#A" patternTransform="matrix(1 0 0 1 -4.8282 -23.7426)"/><path d="M189.3 150.2c-.4 0-.6-.3-.6-.6V135c0-.4.3-.6.6-.6a.65.65 0 0 1 .6.6v14.6c0 .4-.2.6-.6.6z" fill="url(#a)"/></svg>