<svg xmlns="http://www.w3.org/2000/svg" viewBox="0 0 350 350" xmlns:v="https://vecta.io/nano"><path d="M183.6 114.7c0 4.2-1.4 8.1-3.8 11.3l-.8 1h0l-14.2 17.6-14.5-17.9h0c-2.7-3.2-4.3-7.4-4.3-11.9A18.78 18.78 0 0 1 164.8 96c10.4 0 18.8 8.4 18.8 18.7z" fill="#1976d2"/><circle cx="164.8" cy="113.4" r="8.1" fill="#fff"/><path d="M243 165.8c0 4.2-1.4 8.1-3.8 11.3l-.8 1h0l-14.2 17.6-14.5-17.9h0c-2.7-3.2-4.3-7.4-4.3-11.9a18.78 18.78 0 0 1 18.8-18.8c10.4-.1 18.8 8.3 18.8 18.7z" fill="#1976d2"/><circle cx="224.2" cy="166.4" r="8.1" fill="#fff"/><circle cx="164" cy="181" r="33.9" fill="#b4d3ed"/><path d="M174.6 140.8H189c.3 0 .6.1.8.2h.1c4.1 1.8 6.7 5.9 6.7 10.4v3.8c0 3.9-2 7.5-5.4 9.5 0 0-.1 0-.1.1-.4.2-.8.3-1.2.3h-25.8c-2.8 0-5.6 1.2-7.4 3.4-1.1 1.3-1.9 3-2 5.1 0 0-.5 6.8 5.8 8.1.7.1 1.3.2 2 .2h43v7.5h-42.1c-9.5 0-16.9-8.2-15.8-17.6 0-.2 0-.4.1-.5 0 0 1.5-11.4 12.4-12l23.7.2c5.2 0 8.5-5.7 5.7-10.1-.1-.1-.1-.2-.2-.3 0 0-.9-2.1-4.3-2.1h-10.3l-.1-6.2z" fill="#231f20"/></svg>