<?xml version="1.0" encoding="UTF-8"?>
<!DOCTYPE svg PUBLIC "-//W3C//DTD SVG 1.1//EN" "http://www.w3.org/Graphics/SVG/1.1/DTD/svg11.dtd">
<!-- Creator: CorelDRAW 2019 (64-Bit) -->
<svg xmlns="http://www.w3.org/2000/svg" xml:space="preserve" width="350px" height="350px" version="1.1"
    viewBox="0 0 350 350"
    xmlns:xlink="http://www.w3.org/1999/xlink"
    xmlns:xodm="http://www.corel.com/coreldraw/odm/2003" style="shape-rendering:geometricPrecision;text-rendering:geometricPrecision;image-rendering:optimizeQuality;fill-rule:evenodd;clip-rule:evenodd;" >
 <defs>
  <style type="text/css">
   <![CDATA[
    .str0 {stroke:#FEFEFE;stroke-width:0.9;stroke-miterlimit:22.9256}
    .str3 {stroke:white;stroke-width:0.9;stroke-miterlimit:22.9256}
    .str2 {stroke:#2B2A29;stroke-width:2;stroke-linecap:round;stroke-linejoin:round;stroke-miterlimit:2.61313}
    .str1 {stroke:#2B2A29;stroke-width:2;stroke-linecap:round;stroke-linejoin:round;stroke-miterlimit:2.61313}
    .fil3 {fill:none}
    .fil0 {fill:none;fill-rule:nonzero}
    .fil1 {fill:#FEFEFE}
    .fil6 {fill:#2B2A29}
    .fil2 {fill:#105F9F}
    .fil5 {fill:#336699}
    .fil7 {fill:#6BAFE8}
    .fil4 {fill:#B4D2EC}
    .fil8 {fill:white}
   ]]>
  </style>
 </defs>
 <g id="Layer_x0020_1">
  <metadata id="CorelCorpID_0Corel-Layer"/>
  <g>
   <polygon class="fil0 str0" points="350,0 0,0 0,350 350,350 " style="fill:none;fill-rule:nonzero;" />
  </g>
  <g>
   <path class="fil1" d="M150.82 283.53c-0.06,2.02 -0.17,6.06 -0.26,9.6 -0.1,3.54 -0.18,6.58 -0.26,9.44 -0.07,2.87 -0.15,5.56 0.21,7.65 0.35,2.09 1.13,3.58 1.96,4.98 0.84,1.39 1.74,2.69 2.81,3.95 1.08,1.25 2.33,2.47 3.69,3.55 1.36,1.09 2.82,2.04 4.5,2.89 1.68,0.86 3.56,1.62 5.49,2.23 1.94,0.61 3.92,1.08 6.25,1.41 2.33,0.34 5.02,0.54 7.21,0.73 2.2,0.2 3.92,0.37 5.83,0.36 1.91,-0.01 4.01,-0.2 6.45,-0.49 2.43,-0.3 5.18,-0.69 7.93,-1.39 2.75,-0.7 5.48,-1.7 7.87,-2.91 2.38,-1.22 4.41,-2.65 6,-4.04 1.59,-1.38 2.74,-2.73 3.67,-3.99 0.93,-1.26 1.65,-2.45 2.29,-3.39 0.64,-0.93 1.2,-1.62 1.46,-2.82 0.25,-1.2 0.2,-2.9 0.11,-5.04 -0.09,-2.14 -0.2,-4.72 -0.34,-8.91 -0.13,-4.18 -0.29,-9.98 -0.36,-12.88 -0.08,-2.89 -0.08,-2.89 -1.23,-2.12 -1.15,0.77 -3.44,2.32 -5.82,3.71 -2.38,1.39 -4.85,2.63 -7.45,3.69 -2.61,1.06 -5.36,1.94 -8.43,2.72 -3.07,0.77 -6.46,1.45 -9.51,1.74 -3.04,0.3 -5.73,0.22 -8.93,-0.22 -3.21,-0.44 -6.94,-1.24 -10.37,-2.23 -3.43,-0.99 -6.56,-2.17 -9.97,-3.91 -3.4,-1.74 -7.08,-4.04 -8.91,-5.19 -1.84,-1.14 -1.84,-1.14 -1.89,0.88z" style="fill:#FEFEFE;" />
   <g id="_1616858081552">
    <path class="fil2" d="M172.88 326.15c22.44,-0.41 67.32,-0.41 89.75,-0.41 22.44,0 22.44,0 22.55,0 0.12,0 0.35,0 0.27,-6.54 -0.07,-6.53 -0.45,-19.6 -2.34,-28.77 -1.89,-9.17 -5.29,-14.44 -9.86,-20.01 -4.57,-5.57 -10.31,-11.44 -15.41,-15.89 -5.1,-4.46 -9.55,-7.5 -14.31,-10.06 -4.76,-2.56 -9.82,-4.65 -17.38,-6.02 -7.55,-1.37 -17.6,-2.04 -24.59,-2.23 -6.98,-0.18 -10.91,0.11 -12.91,0.26 -2,0.15 -2.08,0.15 -2.76,1.42 -0.68,1.26 -1.96,3.78 -3.97,6.2 -2,2.41 -4.72,4.71 -8.15,6.49 -3.44,1.78 -7.59,3.04 -11.6,3.68 -4.01,0.63 -7.87,0.63 -9.8,0.63 -1.93,0 -1.93,0 -1.93,10.58 0,10.58 0,31.75 0,42.85 0,11.1 0,12.14 0,12.73 0,0.6 0,0.75 0,1.86 0,1.11 0,3.19 0,3.82 0,0.63 0,-0.18 22.44,-0.59z" style="fill:#105F9F;" />
    <path class="fil3" d="M245.74 325.74c0.07,-8.47 0.15,-16.95 0.23,-25.43" style="fill:none;" />
    <path class="fil3" d="M150.44 219.92c7.33,-1.18 14.66,-2.38 21.44,-5.15 6.79,-2.77 13.04,-7.13 19.38,-12.38 6.35,-5.24 12.8,-11.38 17.13,-16.83 4.33,-5.45 6.55,-10.2 7.55,-14.36 1.01,-4.16 0.81,-7.73 0.91,-14.46 0.1,-6.74 0.5,-16.64 0.91,-25.95 0.4,-9.31 0.8,-18.02 1,-26.54 0.21,-8.52 0.21,-16.83 -0.3,-22.87 -0.5,-6.05 -1.51,-9.81 -3.83,-15.16 -2.31,-5.35 -5.94,-12.28 -10.37,-17.92 -4.43,-5.65 -9.67,-10 -14.61,-13.47 -4.93,-3.47 -9.57,-6.04 -14.2,-8.12 -4.63,-2.08 -9.27,-3.67 -13.44,-4.76 -4.17,-1.09 -7.87,-1.68 -9.72,-1.98 -1.85,-0.3 -1.85,-0.3 -1.85,-0.3" style="fill:none;" />
    <path class="fil3" d="M150.44 73.85c7.7,1.05 15.39,2.09 22.96,4.05 7.57,1.97 15.02,4.84 20.87,7.59 5.86,2.74 10.11,5.35 13.24,8.17 3.12,2.81 5.12,5.82 6.79,8.04 1.68,2.22 3.04,3.67 3.71,4.39 0.69,0.71 0.69,0.71 -10.69,0.83 -11.37,0.13 -34.13,0.39 -45.51,0.53 -11.37,0.13 -11.37,0.13 -11.37,0.13" style="fill:none;" />
    <path class="fil3" d="M186.16 206.42c0.27,10.09 0.54,20.18 0.81,30.27" style="fill:none;" />
    <path class="fil2" d="M128 326.15c-22.43,-0.41 -67.31,-0.41 -89.75,-0.41 -22.44,0 -22.44,0 -22.55,0 -0.11,0 -0.34,0 -0.27,-6.54 0.08,-6.53 0.46,-19.6 2.35,-28.77 1.88,-9.17 5.28,-14.44 9.85,-20.01 4.57,-5.57 10.31,-11.44 15.41,-15.89 5.1,-4.46 9.55,-7.5 14.31,-10.06 4.76,-2.56 9.83,-4.65 17.38,-6.02 7.55,-1.37 17.6,-2.04 24.59,-2.23 6.98,-0.18 10.91,0.11 12.92,0.26 2,0.15 2.07,0.15 2.75,1.42 0.68,1.26 1.96,3.78 3.97,6.2 2,2.41 4.72,4.71 8.16,6.49 3.43,1.78 7.58,3.04 11.59,3.68 4.01,0.63 7.87,0.63 9.8,0.63 1.93,0 1.93,0 1.93,10.58 0,10.58 0,31.75 0,42.85 0,11.1 0,12.14 0,12.73 0,0.6 0,0.75 0,1.86 0,1.11 0,3.19 0,3.82 0,0.63 0,-0.18 -22.44,-0.59z" style="fill:#105F9F;" />
    <path class="fil3" d="M55.14 325.74c-0.07,-8.47 -0.15,-16.95 -0.22,-25.43" style="fill:none;" />
    <path class="fil3" d="M150.44 219.92c-7.33,-1.18 -14.65,-2.38 -21.44,-5.15 -6.79,-2.77 -13.03,-7.13 -19.38,-12.38 -6.35,-5.24 -12.8,-11.38 -17.13,-16.83 -4.33,-5.45 -6.54,-10.2 -7.55,-14.36 -1.01,-4.16 -0.81,-7.73 -0.91,-14.46 -0.1,-6.74 -0.5,-16.64 -0.91,-25.95 -0.4,-9.31 -0.8,-18.02 -1,-26.54 -0.2,-8.52 -0.2,-16.83 0.3,-22.87 0.5,-6.05 1.51,-9.81 3.83,-15.16 2.31,-5.35 5.94,-12.28 10.38,-17.92 4.42,-5.65 9.67,-10 14.6,-13.47 4.94,-3.47 9.57,-6.04 14.2,-8.12 4.64,-2.08 9.27,-3.67 13.44,-4.76 4.17,-1.09 7.87,-1.68 9.72,-1.98 1.85,-0.3 1.85,-0.3 1.85,-0.3" style="fill:none;" />
    <path class="fil3" d="M150.44 73.85c-7.69,1.05 -15.39,2.09 -22.96,4.05 -7.57,1.97 -15.02,4.84 -20.87,7.59 -5.85,2.74 -10.11,5.35 -13.23,8.17 -3.13,2.81 -5.12,5.82 -6.8,8.04 -1.68,2.22 -3.03,3.67 -3.71,4.39 -0.68,0.71 -0.68,0.71 10.69,0.83 11.38,0.13 34.13,0.39 45.51,0.53 11.37,0.13 11.37,0.13 11.37,0.13" style="fill:none;" />
    <path class="fil3" d="M114.72 206.42c-0.27,10.09 -0.54,20.18 -0.81,30.27" style="fill:none;" />
   </g>
   <path class="fil4" d="M150.44 73.85c7.7,1.05 15.39,2.09 22.96,4.05 7.57,1.96 15.02,4.84 20.87,7.59 5.86,2.74 10.11,5.35 13.24,8.17 3.12,2.81 5.12,5.82 6.79,8.04 1.68,2.22 3.04,3.67 3.71,4.39 0.69,0.71 0.69,0.71 -10.69,0.83 -11.37,0.13 -34.13,0.39 -45.51,0.53 -11.37,0.13 -11.37,0.13 -11.37,0.13 0,0 0,0 -11.37,-0.13 -11.38,-0.14 -34.13,-0.4 -45.51,-0.53 -11.37,-0.12 -11.37,-0.12 -10.69,-0.83 0.68,-0.72 2.03,-2.17 3.71,-4.39 1.68,-2.22 3.67,-5.23 6.8,-8.04 3.12,-2.82 7.38,-5.43 13.23,-8.17 5.85,-2.75 13.3,-5.63 20.87,-7.59 7.57,-1.96 15.27,-3 22.96,-4.05zm-35.72 132.56c4.64,3.46 9.31,6.33 14.28,8.36 6.79,2.77 14.11,3.97 21.44,5.15 7.33,-1.18 14.66,-2.38 21.44,-5.15 4.97,-2.03 9.64,-4.9 14.28,-8.36 1.7,-1.26 3.4,-2.61 5.1,-4.02 6.35,-5.24 12.8,-11.38 17.13,-16.83 4.33,-5.45 6.55,-10.2 7.55,-14.36 1.01,-4.16 0.81,-7.73 0.91,-14.46 0.1,-6.74 0.5,-16.64 0.91,-25.95 0.4,-9.31 0.8,-18.02 1,-26.54 0.21,-8.52 0.21,-16.83 -0.3,-22.87 -0.5,-6.05 -1.51,-9.81 -3.83,-15.16 -2.31,-5.35 -5.94,-12.28 -10.37,-17.92 -4.43,-5.65 -9.67,-10 -14.61,-13.47 -4.93,-3.47 -9.57,-6.04 -14.2,-8.12 -4.63,-2.08 -9.27,-3.67 -13.44,-4.76 -4.17,-1.09 -7.87,-1.68 -9.72,-1.98 -1.85,-0.3 -1.85,-0.3 -1.85,-0.3 0,0 0,0 -1.85,0.3 -1.85,0.3 -5.55,0.89 -9.72,1.98 -4.17,1.09 -8.8,2.68 -13.44,4.76 -4.63,2.08 -9.26,4.65 -14.2,8.12 -4.93,3.47 -10.18,7.82 -14.6,13.47 -4.44,5.64 -8.07,12.57 -10.38,17.92 -2.32,5.35 -3.33,9.11 -3.83,15.16 -0.5,6.04 -0.5,14.35 -0.3,22.87 0.2,8.52 0.6,17.23 1,26.54 0.41,9.31 0.81,19.21 0.91,25.95 0.1,6.73 -0.1,10.3 0.91,14.46 1.01,4.16 3.22,8.91 7.55,14.36 4.33,5.45 10.78,11.59 17.13,16.83 1.71,1.41 3.4,2.76 5.1,4.02z" style="fill:#B4D2EC;" />
   <path class="fil5" d="M173.4 77.9c-7.57,-1.96 -15.26,-3 -22.96,-4.05 -7.69,1.05 -15.39,2.09 -22.96,4.05 -7.57,1.96 -15.02,4.84 -20.87,7.59 -5.85,2.74 -10.11,5.35 -13.23,8.17 -3.13,2.81 -5.12,5.82 -6.8,8.04 -1.68,2.22 -3.03,3.67 -3.71,4.39 -0.68,0.71 -0.68,0.71 10.69,0.83 11.38,0.13 34.13,0.39 45.51,0.53 11.37,0.13 11.37,0.13 11.37,0.13 0,0 0,0 11.37,-0.13 11.38,-0.14 34.14,-0.4 45.51,-0.53 11.38,-0.12 11.38,-0.12 10.69,-0.83 -0.67,-0.72 -2.03,-2.17 -3.71,-4.39 -1.67,-2.22 -3.67,-5.23 -6.79,-8.04 -3.13,-2.82 -7.38,-5.43 -13.24,-8.17 -5.85,-2.75 -13.3,-5.63 -20.87,-7.59z" style="fill:#336699;" />
   <path class="fil1" d="M228.3 106.57c0.68,0.72 0.68,0.71 -10.7,0.84 -11.37,0.13 -34.12,0.39 -45.5,0.52 -11.37,0.13 -11.37,0.13 -11.37,0.13 0,0 0,0 -11.38,-0.13 -11.38,-0.13 -34.13,-0.39 -45.5,-0.52 -11.38,-0.13 -11.38,-0.12 -10.7,-0.84l-0.7 0c0.21,7.93 0.58,16.06 0.96,24.71 0.4,9.31 0.8,19.21 0.91,25.94 0.1,6.74 -0.11,10.3 0.9,14.47 1.01,4.15 3.23,8.9 7.56,14.35 4.33,5.45 10.78,11.59 17.13,16.84 1.7,1.41 3.4,2.75 5.1,4.02 4.63,3.45 9.31,6.33 14.27,8.36 6.79,2.77 14.12,3.96 21.45,5.15 7.32,-1.19 14.65,-2.38 21.44,-5.15 4.96,-2.03 9.64,-4.91 14.27,-8.36 1.7,-1.27 3.4,-2.61 5.1,-4.02 6.35,-5.25 12.8,-11.39 17.13,-16.84 4.33,-5.45 6.55,-10.2 7.56,-14.35 1.01,-4.17 0.8,-7.73 0.91,-14.47 0.1,-6.73 0.5,-16.63 0.9,-25.94 0.38,-8.65 0.75,-16.78 0.96,-24.71l-0.7 0z" style="fill:#FEFEFE;" />
   <circle class="fil6 str1" cx="124.24" cy="134.56" r="6.68" style="stroke:#2B2A29;stroke-width:2;stroke-linecap:round;stroke-linejoin:round;stroke-miterlimit:2.61313;fill:#2B2A29;" />
   <circle class="fil6 str1" cx="183.17" cy="134.56" r="6.68" style="stroke:#2B2A29;stroke-width:2;stroke-linecap:round;stroke-linejoin:round;stroke-miterlimit:2.61313;fill:#2B2A29;" />
   <polyline class="fil3 str2" points="140.88,176.34 153.48,181.6 165.36,176.34 " style="stroke:#2B2A29;stroke-width:2;stroke-linecap:round;stroke-linejoin:round;stroke-miterlimit:2.61313;fill:none;" />
   <rect class="fil7" x="211.92" y="214.33" width="122.67" height="112.18" rx="1.08" ry="1.43" style="fill:#6BAFE8;" />
   <polygon class="fil8 str3" points="252.81,251.72 272.36,239.75 271.53,239.24 272.42,238.69 273.25,239.2 274.08,238.69 274.97,239.24 274.14,239.75 293.69,251.72 293.69,214.33 252.81,214.33 " style="stroke:white;stroke-width:0.9;stroke-miterlimit:22.9256;fill:white;" />
  </g>
 </g>
</svg>
