<svg xmlns="http://www.w3.org/2000/svg" viewBox="0 0 350 350" xmlns:v="https://vecta.io/nano"><path d="M154.6 111h41.1v40.6h-41.1z" fill="#6bb0e8"/><path d="M168 111l-.1 17.8c0 .1.1.2.2.1l7-4 6.4 3.9c.1.1.2 0 .2-.1V111H168z" fill="#105fa0"/><path d="M130.4 158.2h41.1v40.6h-41.1z" fill="#b4d3ed"/><path d="M143.8 158.2l-.1 17.8c0 .1.1.2.2.1l7-4 6.4 3.9c.1.1.2 0 .2-.1v-17.7h-13.7z" fill="#105fa0"/><path d="M178.5 158.2h41.1v40.6h-41.1z" fill="#b4d3ed"/><path d="M191.9 158.2l-.1 17.8c0 .1.1.2.2.1l7-4 6.4 3.9c.1.1.2 0 .2-.1v-17.7h-13.7z" fill="#105fa0"/></svg>