<svg xmlns="http://www.w3.org/2000/svg" viewBox="0 0 350 350" xmlns:v="https://vecta.io/nano"><path d="M171.2 185v26.8h-41.9c-1.5 0-2.8-1.3-2.8-2.8v-24h44.7z" fill="#1976d2"/><path d="M215.9 185v24c0 1.5-1.3 2.8-2.8 2.8h-41.9V185h44.7z" fill="#105fa0"/><circle cx="148.2" cy="208.7" r="12.5" fill="#040404"/><circle cx="148.2" cy="208.7" r="5.8" fill="#fff"/><circle cx="194.1" cy="208.7" r="12.5" fill="#040404"/><circle cx="194.1" cy="208.7" r="5.8" fill="#fff"/><path d="M133.1 122.3l-6.5.1h-.3-21.1c-3.8 0-6.9-3.1-6.9-6.9 0-1.9.8-3.6 2-4.9 1.3-1.3 3-2 4.9-2H124s7.8.7 9 8.4v.3.1.3l.1 4.6z" fill="#040404"/><path d="M126.4 122.1h6.8V185h-6.8z" fill="#1976d2"/><path d="M133.1 144.9h38.1V185h-38.1z" fill="#b4d3ed"/><path d="M209.2 185h-38.1v-40.1h13.3a24.8 24.8 0 0 1 24.8 24.8V185z" fill="#6bb0e8"/><path d="M145.4 144.9v14.2c0 1.5 1.6 2.4 2.9 1.7l3.8-2 4.4 2.3c1.2.6 2.6-.3 2.6-1.6v-14.6h-13.7zm37.7 0v14.2c0 1.5 1.6 2.4 2.9 1.7l3.8-2 4.4 2.3c1.2.6 2.6-.3 2.6-1.6v-14.6h-13.7z" fill="#040404"/><path d="M171.2 144.9h-31v-22.7c0-10.2 8.3-18.5 18.5-18.5h12.5v41.2z" fill="#6bb0e8"/><path d="M171.2 144.9h31v-22.7c0-10.2-8.3-18.5-18.5-18.5h-12.5v41.2z" fill="#b4d3ed"/><path d="M163.1 103.6l.2 24c0 2 2.4 3.1 4 1.8l3.9-3.4v-22.4h-8.1z" fill="#131819"/><path d="M179.3 103.6l-.2 24c0 2-2.4 3.1-4 1.8l-3.9-3.4v-22.4h8.1z" fill="#414042"/></svg>