<svg xmlns="http://www.w3.org/2000/svg" xmlns:xlink="http://www.w3.org/1999/xlink" viewBox="0 0 350 350" xmlns:v="https://vecta.io/nano"><use xlink:href="#B" fill="#fff"/><use xlink:href="#C" fill="#b4d3ed"/><path d="M137.3 174.4v7.9c0 1.2-1 2.2-2.1 2.2h-7.3c-1.2 0-2.1-1-2.1-2.2v-7.9c0-1.2 1-2.2 2.1-2.2h7.3c1.2 0 2.1 1 2.1 2.2z" fill="#105fa0"/><path d="M137.3 174.4v7.9a2.22 2.22 0 0 1-2.2 2.2h-1.5a2.22 2.22 0 0 1-2.2-2.2v-7.9a2.22 2.22 0 0 1 2.2-2.2h1.5c1.3 0 2.2 1 2.2 2.2z" fill="#1976d2"/><use xlink:href="#B" x="24.3" fill="#fff"/><use xlink:href="#C" x="24.3" fill="#b4d3ed"/><use xlink:href="#D" fill="#105fa0"/><path d="M161.7 174.4v7.9a2.22 2.22 0 0 1-2.2 2.2H158a2.22 2.22 0 0 1-2.2-2.2v-7.9a2.22 2.22 0 0 1 2.2-2.2h1.5a2.22 2.22 0 0 1 2.2 2.2z" fill="#1976d2"/><path d="M215.2 105.8c0 2.7-2.1 4.9-4.8 4.9-1.5 0-2.8-.7-3.7-1.8-1.3 1.3-3 2.1-5 2.1-2.4 0-4.5-1.2-5.7-3.1-1.3 1.9-3.4 3.1-5.7 3.1-2.2 0-4.2-1-5.4-2.7-1.3 1.6-3.2 2.7-5.4 2.7-3.8 0-7-3.2-7-7.1 0-.9.2-1.8.5-2.6 1 2.6 3.5 4.5 6.5 4.5 1.5 0 2.8-.5 4-1.3a6.73 6.73 0 0 0 1.5-1.4 6.73 6.73 0 0 0 1.5 1.4 6.83 6.83 0 0 0 4 1.3c1.7 0 3.3-.6 4.5-1.7.5-.4.9-.9 1.2-1.4.3.5.8 1 1.2 1.4 1.2 1.1 2.8 1.7 4.5 1.7 1.5 0 2.9-.5 4.1-1.3.1-.1.2-.1.2-.2.4 1 1.2 1.8 2.2 2.3.7.3 1.4.5 2.2.5 2 0 3.7-1.3 4.4-3.1.1.5.2 1.2.2 1.8z" fill="#6bb0e8"/><path d="M214.9 104c-.7 1.8-2.4 3.1-4.4 3.1-.8 0-1.5-.2-2.2-.5a5.44 5.44 0 0 1-2.2-2.3c0-.1-.1-.2-.1-.2-.1.1-.1.3-.1.4-1.1.8-2.6 1.3-4.1 1.3-1.7 0-3.3-.6-4.5-1.7-.5-.4-.9-.9-1.2-1.4-.3.5-.8 1-1.2 1.4-1.2 1.1-2.8 1.7-4.5 1.7-1.5 0-2.8-.5-4-1.3a6.73 6.73 0 0 1-1.5-1.4 6.73 6.73 0 0 1-1.5 1.4 6.83 6.83 0 0 1-4 1.3c-2.9 0-5.4-1.9-6.5-4.5 1-2.6 3.5-4.5 6.5-4.5 2.2 0 4.2 1 5.4 2.7 1.3-1.6 3.2-2.7 5.4-2.7 2.4 0 4.5 1.2 5.7 3.1 1.3-1.9 3.4-3.1 5.7-3.1 2.9 0 5.4 1.9 6.5 4.5 0 .1-.1.2-.1.2.1 0 .1-.1.1-.1a4.99 4.99 0 0 1 2.1-.5c2.3 0 4 1.3 4.7 3.1z" fill="#b4d3ed"/><path d="M220.2 119.6v4a1.58 1.58 0 0 1-1.6 1.6h-14.4a1.58 1.58 0 0 1-1.6-1.6v-4a1.58 1.58 0 0 1 1.6-1.6h14.4a1.58 1.58 0 0 1 1.6 1.6z" fill="#364142"/><path d="M220.2 119.6v4a1.58 1.58 0 0 1-1.6 1.6h-7.2a1.58 1.58 0 0 1-1.6-1.6v-4a1.58 1.58 0 0 1 1.6-1.6h7.2a1.58 1.58 0 0 1 1.6 1.6z" fill="#131819"/><path d="M222 166.7h-21.1l3.6-41.5h14z" fill="#6bb0e8"/><path d="M212.2 125.2l-4 41.5h-7.3l3.6-41.5z" fill="#b4d3ed"/><path d="M203.6 134.7h7.7l-.7 7.2-7.6-.2z" fill="#1976d2"/><path d="M210.6 141.9h9.3l-.6-7.2h-8z" fill="#105fa0"/><path d="M231.6 169.9v36.2c0 1.8-1.5 3.2-3.2 3.2h-34.1c-1.8 0-3.2-1.5-3.2-3.2v-36.2c0-1.8 1.5-3.2 3.2-3.2h34.1c1.7 0 3.2 1.4 3.2 3.2z" fill="#040404"/><path d="M231.6 169.9v36.2c0 1.8-1.5 3.2-3.4 3.2h-28.5c-1.9 0-3.4-1.5-3.4-3.2v-36.2c0-1.8 1.5-3.2 3.4-3.2h28.5c1.8 0 3.4 1.4 3.4 3.2z" fill="#105fa0"/><use xlink:href="#B" x="48.6" fill="#fff"/><use xlink:href="#C" x="48.6" fill="#b4d3ed"/><use xlink:href="#D" x="24.3" fill="#105fa0"/><path d="M186,174.4v7.9c0,1.2-1,2.2-2.2,2.2h-1.5c-1.2,0-2.2-1-2.2-2.2v-7.9c0-1.2,1-2.2,2.2-2.2h1.5    C185,172.2,186,173.2,186,174.4z" fill="#1976d2"/><path d="M223.3 177.9v4c0 .9-1 1.6-2.1 1.6h-19.7c-1.2 0-2.1-.7-2.1-1.6v-4c0-.9 1-1.6 2.1-1.6h19.7c1.1 0 2.1.7 2.1 1.6z" fill="#364142"/><path d="M223.3 177.9v4c0 .9-1 1.6-2.1 1.6h-9.8c-1.2 0-2.1-.7-2.1-1.6v-4c0-.9 1-1.6 2.1-1.6h9.8c1.1 0 2.1.7 2.1 1.6z" fill="#131819"/><path d="M200.6 183.2H222v26.2h-21.4z" fill="#fff"/><path d="M235 211.3v3.1a2.22 2.22 0 0 1-2.2 2.2H117.2a2.22 2.22 0 0 1-2.2-2.2v-3.1a2.22 2.22 0 0 1 2.2-2.2h115.7c1.1.1 2.1 1 2.1 2.2z" fill="#131819"/><path d="M235 211.3v.2a2.22 2.22 0 0 1-2.2 2.2H117.2a2.22 2.22 0 0 1-2.2-2.2v-.2a2.22 2.22 0 0 1 2.2-2.2h115.7c1.1.1 2.1 1 2.1 2.2z" fill="#105fa0"/><defs ><path id="B" d="M144.2 155.8v3.5l-.2 51a2.22 2.22 0 0 1-2.2 2.2h-19.6a2.22 2.22 0 0 1-2.2-2.2v-42.9-.5c0-.4-.1-1.4 1.5-2.1l20.5-10.4c.3-.2.7-.2 1.1-.2.3.1.6.2.9.5.1.5.2.8.2 1.1z"/><path id="C" d="M144.2 155.8v3.5l-16.7 8.5c-.5.3-.8.8-.8 1.3v43.4h-4.5a2.22 2.22 0 0 1-2.2-2.2v-42.9-.5c0-.4-.1-1.4 1.5-2.1l20.5-10.4c.3-.2.7-.2 1.1-.2.3.1.6.2.9.5.1.5.2.8.2 1.1z"/><path id="D" d="M161.7 174.4v7.9c0 1.2-1 2.2-2.1 2.2h-7.3c-1.2 0-2.1-1-2.1-2.2v-7.9c0-1.2 1-2.2 2.1-2.2h7.3c1.1 0 2.1 1 2.1 2.2z"/></defs></svg>