<svg xmlns="http://www.w3.org/2000/svg" xmlns:xlink="http://www.w3.org/1999/xlink" viewBox="0 0 350 350" xmlns:v="https://vecta.io/nano"><use xlink:href="#B" fill="#ffe278"/><use xlink:href="#B" fill="#1976d2"/><use xlink:href="#C" fill="#ffc350"/><use xlink:href="#C" fill="#6bb0e8"/><use xlink:href="#D" fill="#ef5e6c"/><use xlink:href="#E" fill="#fff3de"/><use xlink:href="#F" fill="#d84e62"/><g fill="#dd8793"><use xlink:href="#G"/><use xlink:href="#H"/><use xlink:href="#I"/><use xlink:href="#G" x="-8.7" y="16.2"/></g><use xlink:href="#D" fill="#b4d3ed"/><use xlink:href="#E" fill="#fff"/><use xlink:href="#F" fill="#105fa0"/><g fill="#6bb0e8"><use xlink:href="#G"/><use xlink:href="#H"/><use xlink:href="#I"/><use xlink:href="#G" x="-8.7" y="16.2"/></g><use xlink:href="#J" fill="#3675bb"/><use xlink:href="#J" fill="#040404"/><defs ><path id="B" d="M202.3 146l-2.2-9.2-1.3-5.6c-.4-1.6-1.3-3-2.6-4l-7.2-5.3-1.1-.8-5.8-4.3-.8-.6c-1.2-.9-2.6-1.3-4-1.4l-14.3-.2c-3.4-.1-6.6 1.5-8.7 4.1l-40.6 51.1c-2.4 3.1-1.9 7.5 1.2 10l18.9 15 2.1 1.7 9.5 7.5 4.7 3.7a7.18 7.18 0 0 0 6.6 1.2c1.4-.4 2.6-1.2 3.6-2.5l.9-1.2 4.2-5.4 1.6-2 2.2-2.9 1.6-2 2.4-3.1 1.6-2 2.2-2.8 1.6-2 20.5-26.3 1.4-1.8c1.8-2.5 2.6-5.8 1.8-8.9zm-25.9-15.6c.7-2.7 3.5-4.2 6.1-3.5 2.7.7 4.3 3.4 3.5 6.1-.7 2.7-3.5 4.2-6.1 3.5s-4.2-3.4-3.5-6.1zm17.6 12.8c-1.8 0-3.3-.9-4.3-2.2-.6-.8-.9-1.9-.9-3 0-1.4.5-2.6 1.4-3.5 1-1 2.3-1.7 3.9-1.7h.5c2.5.2 4.4 2.2 4.7 4.7v.5c0 2.8-2.4 5.2-5.3 5.2z"/><path id="C" d="M215 144.7l-7.3-13.7c-.2-.5-.5-.9-.9-1.3-.3-.4-.7-.7-1.1-1-.5-.4-1.1-.7-1.6-.9l-13.1-5.2-2.9-1.2-.4-.2-1-.4a7.91 7.91 0 0 0-4.3-.3l-14.1 3.5c-3.3.8-6.1 3.2-7.5 6.3l-26.4 61.2c-.5 1.2-.7 2.4-.6 3.6.2 1.7.9 3.3 2.2 4.6.6.6 1.3 1.1 2.2 1.4l7.3 3.2 11.3 5 23.3 10.2c3.7 1.6 8.1-.1 9.7-3.9l25.8-61.5a11.86 11.86 0 0 0-.6-9.4zm-20.4-11.8c2.5.2 4.4 2.2 4.7 4.7v.5c0 2.9-2.3 5.2-5.2 5.2-1.8 0-3.3-.9-4.3-2.2-2.4-.4-4.3-2.5-4.3-5 0-2.8 2.3-5.1 5.1-5.1 1.6 0 3 .8 4 1.9z"/><path id="D" d="M219.1 146.9l-7.5-14.1c-.8-1.5-2.1-2.7-3.7-3.3l-.8-.3-1.4-.5-14.8-5.9h-.1l-.9-.4-.8-.3a7.31 7.31 0 0 0-3.6 0l-14.5 3.6c-3.4.9-6.3 3.3-7.7 6.5l-27 62.9a9.83 9.83 0 0 0-.5 1.6 7.08 7.08 0 0 0 0 2.9c.5 2.3 2 4.3 4.3 5.3l43 18.8c3.8 1.7 8.3-.1 9.9-4l26.4-63.2c1.5-3 1.3-6.6-.3-9.6zm-19.8-8.8c0 2.9-2.3 5.2-5.2 5.2-1.8 0-3.3-.9-4.3-2.2-.6-.8-.9-1.9-.9-3 0-1.4.5-2.6 1.4-3.5 1-1 2.3-1.7 3.9-1.7h.5c2.5.2 4.4 2.2 4.7 4.7-.1.2-.1.4-.1.5z"/><path id="E" d="M172.1 210.6l-16.7-7.6c-6-2.7-8.7-9.9-5.9-15.9l14.9-32.7c2.7-6 9.9-8.7 15.9-5.9l16.7 7.6c6 2.7 8.7 9.9 5.9 15.9L188 204.7c-2.7 6-9.9 8.6-15.9 5.9z"/><path id="F" d="M176.1 173.9c-.6-.5-1-1-1.5-1.6-.4-.6-.7-1.3-1-2l2.4-1.2c.2.9.6 1.7 1.1 2.3s1.1 1.1 1.9 1.5c1.1.5 1.9.6 2.7.5.7-.2 1.3-.7 1.6-1.5h0c.2-.5.3-1 .2-1.4s-.3-.8-.7-1.2c-.3-.3-.8-.7-1.4-1.1h-.1-.1l-.1-.1-.1-.1a13.87 13.87 0 0 1-2.1-1.7c-.5-.5-.9-1.2-1-2-.2-.8 0-1.8.5-2.9h0c.5-1.1 1.1-1.9 1.8-2.4s1.6-.8 2.5-.8c1 0 2 .3 3.2.8.5.2 1 .5 1.5.9.5.3.9.7 1.3 1.2.4.4.8.9 1.1 1.5l-2.2 1.3c-.4-.6-.8-1.1-1.2-1.6-.4-.4-.9-.8-1.4-1-1-.5-1.8-.6-2.5-.4s-1.2.7-1.6 1.5h0c-.3.6-.3 1.1-.2 1.5s.4.8.7 1.2c.4.3.9.8 1.5 1.3 0 0 .1 0 .1.1 0 0 .1 0 .1.1 0 0 .1 0 .1.1s.1 0 .1.1c.8.6 1.4 1.2 1.9 1.7.5.6.8 1.2.9 2s-.1 1.7-.6 2.8h0c-.5 1.1-1.1 1.8-1.8 2.3s-1.6.8-2.6.7-2.1-.3-3.3-.9c-.5-.6-1.1-1-1.7-1.5zm1.4-.1l2.3 1-1.2 2.7-2.3-1 1.2-2.7zm8-17.5l2.3 1-1.2 2.5-2.3-1 1.2-2.5z"/><path id="G" d="M187.7 190.2l-26.2-12c-.4-.2-.6-.7-.4-1.1l.3-.7c.2-.4.7-.6 1.1-.4l26.2 12c.4.2.6.7.4 1.1l-.3.7c-.2.4-.7.6-1.1.4z"/><path id="H" d="M184.8 195.4l-26.2-12c-.4-.2-.6-.7-.4-1.1l.3-.7c.2-.4.7-.6 1.1-.4l26.2 12c.4.2.6.7.4 1.1l-.2.7c-.2.4-.7.6-1.2.4z"/><path id="I" d="M181.7 201l-26.2-12c-.4-.2-.6-.7-.4-1.1l.3-.7c.2-.4.7-.6 1.1-.4l26.2 12c.4.2.6.7.4 1.1l-.3.7c-.1.4-.6.6-1.1.4z"/><path id="J" d="M195.1 140.3h-.4c-.8 0-1.5-.2-2.2-.5-1.8-.8-3.1-2.5-3.8-4.8 0-.1-.1-.2-.1-.3l2.7-.8c0 .1 0 .1.1.2.5 1.5 1.2 2.6 2.2 3 .4.2.7.3 1.1.3 1 .1 2.3-.3 3.6-1.1.3-.2.6-.3.8-.5 2.2-1.5 4.4-4 6.2-6.9.1-.2.2-.3.3-.5.8-1.2 1.5-2.6 2.1-3.9 4.3-9.3 3.6-17.5.3-19-1.7-.8-4.1 0-6.6 2.2-2.9 2.4-5.6 6.1-7.6 10.5a55.91 55.91 0 0 0-1.8 4.7c0 .1 0 .2-.1.2l-.1.2-1.3-.6-1.4-.4h0 0c0-.1.1-.2.1-.3.5-1.7 1.2-3.4 1.9-5.1 2.2-4.8 5.1-8.9 8.3-11.5 3.5-2.9 6.9-3.8 9.6-2.6 5.3 2.4 5.8 12.5 1.1 22.8-.7 1.5-1.4 2.9-2.3 4.2-.1.2-.2.3-.3.5-2.1 3.3-4.5 6-7 7.7-.3.2-.7.5-1 .7-1.2 1.1-2.9 1.6-4.4 1.6z"/></defs></svg>