<svg xmlns="http://www.w3.org/2000/svg" viewBox="0 0 350 350" xmlns:v="https://vecta.io/nano"><path d="M173.1 148.7L210 166v43.1l-36.9-17.6z" fill="#6bb0e8"/><path d="M210 209.1l36.9-17.9v-42.5L210 166z" fill="#1976d2"/><path d="M173.1 148.7l34.1-17.2c1.8-.9 3.9-.9 5.7 0l34 17.2L210 166l-36.9-17.3z" fill="#b4d3ed"/><path d="M197.2 136.5l37.1 18.1v14.3c0 .3-.2.5-.4.7l-8.1 3.7c-.5.2-1-.1-1-.7l-.1-13.5-36.9-17.9 9.4-4.7z" fill="#105fa0"/><path d="M188.6 185.5l-11.7-5.4c-.3-.1-.4-.5-.3-.7l.8-1.7c.1-.3.5-.4.7-.3l11.7 5.4c.3.1.4.5.3.7l-.8 1.7c-.1.3-.4.5-.7.3z" fill="#fff"/><path d="M183.6 189l-7-3.2c-.3-.1-.4-.5-.3-.7l.8-1.7c.1-.3.5-.4.7-.3l7 3.2c.3.1.4.5.3.7l-.8 1.7c-.1.3-.4.4-.7.3z" fill="#b4d3ed"/><path d="M89.8 148.6l39 18.3v45.4l-39-18.6z" fill="#1976d2"/><path d="M128.8 212.3l38.8-18.9v-44.8l-38.8 18.3z" fill="#6bb0e8"/><path d="M89.8 148.6l35.9-18.1c1.9-.9 4.1-.9 6 0l35.9 18.1-38.8 18.3-39-18.3z" fill="#b4d3ed"/><path d="M115.3 135.8l39.1 19.1V170c0 .3-.2.6-.5.7l-8.6 3.9c-.5.2-1.1-.1-1.1-.7l-.1-14.2-38.9-18.8 10.1-5.1z" fill="#105fa0"/><path d="M106.2 187.5l-12.3-5.7c-.3-.1-.4-.5-.3-.8l.8-1.8c.1-.3.5-.4.8-.3l12.3 5.7c.3.1.4.5.3.8l-.8 1.8c-.1.3-.5.4-.8.3z" fill="#fff"/><path d="M100.9 191.1l-7.3-3.4c-.3-.1-.4-.5-.3-.8l.8-1.8c.1-.3.5-.4.8-.3l7.3 3.4c.3.1.4.5.3.8l-.8 1.8c-.1.3-.5.4-.8.3z" fill="#b4d3ed"/><g fill="#1c6bad"><path d="M186.2 128.8l-7.1-.2-7.1-.2 3.4 6.2 3.4 6.3 3.7-6.1zm-35.9-8.8l5.1-4.8 5.2-4.9 1.6 6.9 1.6 6.9-6.8-2z"/><path d="M159.7 115.4s17.9-11.3 29.4 6.2l-2.3 3.1s-10.4-16.9-25.7-4.2l-1.4-5.1zm-8.1 13.4s12.2 17.2 29.5 5.4l-.9-3.7s-16 11.6-25.4-5.9l-3.2 4.2z"/></g></svg>