<svg xmlns="http://www.w3.org/2000/svg" viewBox="0 0 350 350" xmlns:v="https://vecta.io/nano"><path d="M122.8 125.1l52.2 24.5v61l-52.2-25z" fill="#1976d2"/><path d="M175 210.6l52.2-25.4v-60.1L175 149.6z" fill="#6bb0e8"/><path d="M122.8 125.1l48.2-24.3c2.5-1.3 5.5-1.3 8 0l48.1 24.3-52.1 24.5-52.2-24.5z" fill="#b4d3ed"/><path d="M157 107.9l52.5 25.6v20.3c0 .4-.2.8-.6.9l-11.5 5.3c-.7.3-1.5-.2-1.5-.9l-.2-19.1-52.2-25.3 13.5-6.8z" fill="#105fa0"/><path d="M144 176.9l-15-6.9c-.8-.4-1.2-1.4-.8-2.2l.4-.8c.4-.8 1.4-1.2 2.2-.8l14.9 6.9c.8.4 1.2 1.4.8 2.2l-.4.8c-.3.8-1.3 1.2-2.1.8z" fill="#fff"/><path d="M136.9 181.7l-8.2-3.8c-.8-.4-1.2-1.4-.8-2.2l.4-.8c.4-.8 1.4-1.2 2.2-.8l8.2 3.8c.8.4 1.2 1.4.8 2.2l-.4.8c-.3.8-1.4 1.2-2.2.8z" fill="#b4d3ed"/></svg>