<?xml version="1.0" encoding="utf-8"?>
<!-- Generator: Adobe Illustrator 28.2.0, SVG Export Plug-In . SVG Version: 6.00 Build 0)  -->
<svg version="1.1" id="Layer_1" xmlns="http://www.w3.org/2000/svg" xmlns:xlink="http://www.w3.org/1999/xlink" x="0px" y="0px"
	 viewBox="0 0 1080 1080" style="enable-background:new 0 0 1080 1080;" xml:space="preserve">
<style type="text/css">
	.st0{font-family:'ArialMT';}
	.st1{font-size:26.94px;}
	.st2{fill:#1976D2;}
	.st3{fill:#6BB0E8;}
	.st4{fill:#B4D3ED;}
	.st5{fill:#105FA0;}
	.st6{fill:#FFFFFF;}
</style>
<text transform="matrix(1 0 0 1 486.4576 510.0125)" class="st0 st1">I</text>
<text transform="matrix(1 0 0 1 493.3276 510.0125)" class="st0 st1">t</text>
<text transform="matrix(1 0 0 1 502.0776 510.0125)" class="st0 st1">em</text>
<g>
	<polygon class="st2" points="462.98,366.37 515.18,390.97 515.18,451.87 462.98,426.87 	"/>
	<polygon class="st3" points="515.18,451.87 567.28,426.57 567.28,366.37 515.18,390.97 	"/>
	<path class="st4" d="M462.98,366.37l48.2-24.3c2.5-1.3,5.5-1.3,8,0l48.1,24.3l-52.1,24.5L462.98,366.37z"/>
	<path class="st5" d="M497.08,349.17l52.5,25.6v20.3c0,0.4-0.2,0.8-0.6,0.9l-11.5,5.3c-0.7,0.3-1.5-0.2-1.5-0.9l-0.2-19.1
		l-52.1-25.2L497.08,349.17L497.08,349.17z"/>
	<path class="st6" d="M470.98,407.37l14.9,6.9c0.8,0.4,1.2,1.4,0.8,2.2l-0.4,0.8c-0.4,0.8-1.4,1.2-2.2,0.8l-14.9-6.9
		c-0.8-0.4-1.2-1.4-0.8-2.2l0.4-0.8C469.08,407.37,470.08,406.97,470.98,407.37z"/>
	<path class="st4" d="M470.58,415.27l8.2,3.8c0.8,0.4,1.2,1.4,0.8,2.2l-0.4,0.8c-0.4,0.8-1.4,1.2-2.2,0.8l-8.2-3.8
		c-0.8-0.4-1.2-1.4-0.8-2.2l0.4-0.8C468.68,415.27,469.68,414.87,470.58,415.27z"/>
</g>
</svg>
