<svg xmlns="http://www.w3.org/2000/svg" viewBox="0 0 350 350" xmlns:v="https://vecta.io/nano"><path d="M192.5 151.9l-40.7 27c-1.3.9-3.1.5-4-.8l-27-40.7h65.4l7 10.6c.9 1.3.6 3-.7 3.9z" fill="none" stroke="#231f20" stroke-miterlimit="10"/><path d="M206.6 209.1a5.52 5.52 0 0 1-5.5 5.5h-69.7c-6.3.5-8.9-.7-8.9-.7-5.7-2.8-6.6-7.5-6.3-10.8.2-2.2 1.2-4.3 2.7-6l7.5-8.2c2.2 2 5.1 3.2 8.2 3.2h3.6l-7.9 8.4c-2.1 2.1-2.1 2.9-2 3.2 0 .1.1.2.1.2.6-.2 1.3-.4 2-.4H201c3.2.1 5.6 2.6 5.6 5.6z" fill="#6bb0e8"/><path d="M215.1 149.9l-21.5 36.5c-2.2 3.8-6.3 6.1-10.7 6l-44.5-.3h-3.6c-3.1 0-6-1.2-8.2-3.2-.9-.8-1.7-1.8-2.3-2.9l-21.1-36.1c-3.2-5.6.8-12.5 7.2-12.5h10.4l27 40.7c.9 1.3 2.7 1.7 4 .8l40.7-27c1.3-.9 1.7-2.7.8-4l-7-10.6H208c6.4 0 10.4 7.1 7.1 12.6z" fill="#105fa0"/><path d="M192.5 151.9l-40.7 27c-1.3.9-3.1.5-4-.8l-27-40.7-2.3-3.5c-.9-1.3-.5-3.1.8-4l40.7-27c1.3-.9 3.1-.5 4 .8l22.3 33.7 7 10.6c.8 1.3.5 3-.8 3.9z" fill="#1976d2"/><g fill="#040404"><circle cx="138.7" cy="218" r="8.9"/><circle cx="181.4" cy="218" r="8.9"/><path d="M125.3 125.8l-5.3-7.5c-.7-1-1.2-2.2-1.3-3.5-.1-1.6.2-3.5 2.1-5.2L138.6 97c.1-.1.3-.2.5-.2 1.2-.3 6.1-1.3 8.7 2.1l5.9 8.1-2.4 1.6-6.1-8s-2.4-3.3-6.1-.5l-15.9 11.2c-.6.4-1.1 1.1-1.4 1.8-.3.8-.3 1.8.4 2.9.1.1.2.3.3.4l5.1 7.9-2.3 1.5z"/></g><path d="M192.5 151.9l-40.7 27c-1.3.9-3.1.5-4-.8l-27-40.7h65.4l7 10.6c.9 1.3.6 3-.7 3.9z" fill="#b4d3ed"/><ellipse cx="195.6" cy="109.1" rx="15.4" ry="15.1" fill="#1976d2"/><g fill="#fff"><path d="M186.9 109.1h0a1.79 1.79 0 0 1 1.8-1.8h14a1.79 1.79 0 0 1 1.8 1.8h0a1.79 1.79 0 0 1-1.8 1.8h-14c-1-.1-1.8-.8-1.8-1.8z"/><path d="M195.6 117.8h0a1.79 1.79 0 0 1-1.8-1.8v-14a1.79 1.79 0 0 1 1.8-1.8h0a1.79 1.79 0 0 1 1.8 1.8v14a1.79 1.79 0 0 1-1.8 1.8z"/></g></svg>