<svg xmlns="http://www.w3.org/2000/svg" viewBox="0 0 350 350" xmlns:v="https://vecta.io/nano"><path d="M130.1 88.6h67.8v83.1h-67.8z" fill="#105fa0"/><path d="M142.8 101.4h68.7v83.8h-68.7z" fill="#6bb0e8"/><path d="M157.1 170.1h29.8v5.7h-29.8z" fill="#231f20"/><ellipse cx="213" cy="174.7" rx="28.8" ry="28.3" fill="#1976d2"/><path d="M228.4 167.1c0 .5-.2 1.1-.6 1.5l-16.1 15.9h0c-.3.3-.6.4-.9.5-.7.2-1.6 0-2.2-.5l-8.1-7.9c-.4-.4-.6-1-.6-1.5s.2-1.1.6-1.5c.8-.8 2.2-.8 3.1 0l6.5 6.4 14.6-14.4c.8-.8 2.2-.8 3.1 0 .4.5.6 1 .6 1.5zm-55-13.5c-1.4-.4-2.7-.9-3.9-1.6s-2.3-1.6-3.4-2.7l3.3-3.9c1.1 1.4 2.4 2.4 3.8 3.1s2.9 1 4.6 1c2.3 0 4-.4 5.1-1.3s1.7-2.2 1.7-4h0c0-1.1-.3-2-.8-2.7s-1.2-1.2-2.1-1.5-2-.6-3.3-.9h-.1-.1-.3-.3c-2.1-.4-3.9-.8-5.2-1.3a7.79 7.79 0 0 1-3.4-2.6c-.9-1.3-1.4-3.1-1.4-5.5h0c0-2.3.4-4.2 1.3-5.7.8-1.5 2.1-2.7 3.8-3.4 1.7-.8 3.8-1.1 6.3-1.1 1.1 0 2.2.1 3.3.3s2.2.6 3.2 1c1.1.5 2.1 1 3.2 1.7l-2.9 4c-1.2-.8-2.3-1.4-3.5-1.8a9.6 9.6 0 0 0-3.3-.6c-2.1 0-3.7.4-4.7 1.3-1.1.9-1.6 2.1-1.6 3.9h0c0 1.2.3 2.1.9 2.8s1.4 1.2 2.3 1.5 2.2.6 3.8 1h.2.2.2.2c1.9.4 3.5.9 4.7 1.5 1.3.6 2.3 1.5 3.2 2.8s1.3 3.1 1.3 5.3h0c0 2.2-.4 4.1-1.3 5.5-.9 1.5-2.2 2.6-3.9 3.3s-3.9 1.1-6.6 1.1c-1.6 0-3.1-.2-4.5-.5zm2.4-38.3h4.9v5.4h-4.9v-5.4zm0 36.9h4.9v5.7h-4.9v-5.7z" fill="#fff"/></svg>