<svg xmlns="http://www.w3.org/2000/svg" width="56.528" height="94.601" viewBox="0 0 56.528 94.601">
  <g id="Pencil" transform="translate(-6.273 0.123)">
    <path id="Object_5" data-name="Object 5" d="M14.1,0A4.9,4.9,0,0,1,19,4.9V22.677H0V4.9A4.9,4.9,0,0,1,4.9,0Z" transform="translate(45.486 -0.123) rotate(24.318)" fill="#fff"/>
    <path id="Object_4" data-name="Object 4" d="M19,0V65.893L10.523,78.74a1.226,1.226,0,0,1-2.046,0L0,65.893V0Z" transform="translate(38.924 14.399) rotate(24.318)" fill="#343434"/>
    <path id="Object_3" data-name="Object 3" d="M27.134,0,0,60.047l1.648,10.29a13.528,13.528,0,0,1,3.325,1.031A13.139,13.139,0,0,1,8.35,73.53l8.964-5.659L44.449,7.824Z" transform="translate(11.789 14.399)" fill="#fff"/>
    <path id="Object_2" data-name="Object 2" d="M4.9,0A4.9,4.9,0,0,0,0,4.9V72.442c1.943-1.4,5.481-2.5,9.194.8,1.275-1.666,4.959-3.973,9.806-.469V4.9A4.9,4.9,0,0,0,14.1,0Z" transform="translate(42.458 6.579) rotate(24.318)" fill="#9e1f60"/>
    <path id="Object_1" data-name="Object 1" d="M.826,66.826c-.154.064-.3.133-.428.2q-.19-.425-.4-.8L29.927,0l.911.412Z" transform="translate(20.277 10.079)" fill="#5523e4"/>
  </g>
</svg>
