<svg xmlns="http://www.w3.org/2000/svg" xmlns:xlink="http://www.w3.org/1999/xlink" viewBox="0 0 350 350" xmlns:v="https://vecta.io/nano"><pattern y="350" width="30.4" height="33.6" patternUnits="userSpaceOnUse" id="A" viewBox="0 -33.6 30.4 33.6" overflow="visible"><path d="M0-33.6h30.4V0H0z" fill="#105fa0"/></pattern><pattern y="350" width="30.4" height="33.6" patternUnits="userSpaceOnUse" id="B" viewBox="0 -33.6 30.4 33.6" overflow="visible"><path d="M0-33.6h30.4V0H0z" fill="#6bb0e8"/></pattern><pattern y="350" width="30.4" height="33.6" patternUnits="userSpaceOnUse" id="C" viewBox="0 -33.6 30.4 33.6" overflow="visible"><path d="M0-33.6h30.4V0H0z" fill="#b4d3ed"/></pattern><pattern id="D" xlink:href="#A" patternTransform="matrix(1 0 0 1 -4.8282 -23.7426)"/><path d="M136.1 203.2h77.6 3.9v-2.7-56.7c0-1.5-1.2-2.7-2.6-2.7h-.6c-1.3 0-2.3-.5-3-1.1-1-.9-1.6-2.3-1.6-3.7v-.3c0-1.5-1.2-2.7-2.6-2.7h-22.3c-1.5 0-2.6 1.2-2.6 2.7v.3.3c-.2 2.5-2.3 4.4-4.8 4.4h-41.4c-1.5 0-2.6 1.2-2.6 2.7v55.6 3.5l2.6.4z" fill="url(#D)"/><pattern id="E" xlink:href="#C" patternTransform="matrix(1 0 0 1 -4.8282 -23.7426)"/><path d="M216.9 198.6l-10.3-50.7h-83.9l10.1 51.1.7 4.3 3.5-.1 76.4.1h4.2z" fill="url(#E)"/><path d="M 133.8000030517578 112.80000305175781 L 189.9000015258789 112.80000305175781 L 189.9000015258789 202.70000457763672 L 133.8000030517578 202.70000457763672 Z" fill="#fff" stroke="url(#B)" stroke-width="3" stroke-miterlimit="10"/><linearGradient id="F" gradientUnits="userSpaceOnUse" x1="113.103" y1="177.453" x2="217.644" y2="177.453"><stop offset="0" stop-color="#2484c6"/><stop offset="1" stop-color="#2484c6" stop-opacity="0"/></linearGradient><path d="M217.6 203.3l-19.3-46.7c-.3-.7-.6-1.5-.8-2.2-.3-1-1.3-3-5.2-2.6h-75c-2.8 0-4.8 2.3-4.2 5v.1c0 .1.1.2.1.3l20.5 46.2h83.9z" fill="url(#F)"/><pattern id="G" xlink:href="#A" patternTransform="matrix(1 0 0 1 -4.8282 -23.7426)"/><use xlink:href="#b" fill="url(#G)"/><pattern id="H" xlink:href="#A" patternTransform="matrix(1 0 0 1 -4.8282 -23.7426)"/><path d="M163.5 161.1h-21.1c-.8 0-1.4-.6-1.4-1.4h0c0-.8.6-1.4 1.4-1.4h21.1c.8 0 1.4.6 1.4 1.4h0c.1.7-.6 1.4-1.4 1.4z" fill="url(#H)"/><pattern id="I" xlink:href="#A" patternTransform="matrix(1 0 0 1 -4.8282 -23.7426)"/><use xlink:href="#c" fill="url(#I)"/><pattern id="J" xlink:href="#A" patternTransform="matrix(1 0 0 1 -4.8282 -23.7426)"/><path d="M179 161.1h-11c-.8 0-1.4-.6-1.4-1.4h0c0-.8.6-1.4 1.4-1.4h11c.8 0 1.4.6 1.4 1.4h0c0 .7-.7 1.4-1.4 1.4z" fill="url(#J)"/><pattern id="K" xlink:href="#A" patternTransform="matrix(1 0 0 1 -4.8282 -23.7426)"/><use xlink:href="#b" y="-29.9" fill="url(#K)"/><pattern id="L" xlink:href="#A" patternTransform="matrix(1 0 0 1 -4.8282 -23.7426)"/><use xlink:href="#d" fill="url(#L)"/><pattern id="M" xlink:href="#A" patternTransform="matrix(1 0 0 1 -4.8282 -23.7426)"/><use xlink:href="#c" y="-29.9" fill="url(#M)"/><pattern id="N" xlink:href="#A" patternTransform="matrix(1 0 0 1 -4.8282 -23.7426)"/><use xlink:href="#e" fill="url(#N)"/><pattern id="O" xlink:href="#A" patternTransform="matrix(1 0 0 1 -4.8282 -23.7426)"/><path d="M180 185.8h-28.9c-.8 0-1.4-.6-1.4-1.4h0c0-.8.6-1.4 1.4-1.4H180c.8 0 1.4.6 1.4 1.4h0c0 .7-.6 1.4-1.4 1.4z" fill="url(#O)"/><pattern id="P" xlink:href="#A" patternTransform="matrix(1 0 0 1 -4.8282 -23.7426)"/><use xlink:href="#d" y="59.7" fill="url(#P)"/><pattern id="Q" xlink:href="#A" patternTransform="matrix(1 0 0 1 -4.8282 -23.7426)"/><path d="M146 185.8h-3.2c-.8 0-1.4-.6-1.4-1.4h0c0-.8.6-1.4 1.4-1.4h3.2c.8 0 1.4.6 1.4 1.4h0c0 .7-.6 1.4-1.4 1.4z" fill="url(#Q)"/><pattern id="R" xlink:href="#A" patternTransform="matrix(1 0 0 1 -4.8282 -23.7426)"/><use xlink:href="#e" y="59.7" fill="url(#R)"/><pattern id="S" xlink:href="#A" patternTransform="matrix(1 0 0 1 -4.8282 -23.7426)"/><path d="M180 140.9h-14.8c-.8 0-1.4-.6-1.4-1.4h0c0-.8.6-1.4 1.4-1.4H180c.8 0 1.4.6 1.4 1.4h0c0 .8-.6 1.4-1.4 1.4z" fill="url(#S)"/><pattern id="T" xlink:href="#A" patternTransform="matrix(1 0 0 1 -4.8282 -23.7426)"/><use xlink:href="#f" fill="url(#T)"/><pattern id="U" xlink:href="#A" patternTransform="matrix(1 0 0 1 -4.8282 -23.7426)"/><path d="M160.9 140.9h-18.1c-.8 0-1.4-.6-1.4-1.4h0c0-.8.6-1.4 1.4-1.4h18.1c.8 0 1.4.6 1.4 1.4h0c0 .8-.6 1.4-1.4 1.4z" fill="url(#U)"/><pattern id="V" xlink:href="#A" patternTransform="matrix(1 0 0 1 -4.8282 -23.7426)"/><use xlink:href="#g" fill="url(#V)"/><pattern id="W" xlink:href="#A" patternTransform="matrix(1 0 0 1 -4.8282 -23.7426)"/><path d="M180 171.2h-14.8c-.8 0-1.4-.6-1.4-1.4h0c0-.8.6-1.4 1.4-1.4H180c.8 0 1.4.6 1.4 1.4h0c0 .7-.6 1.4-1.4 1.4z" fill="url(#W)"/><pattern id="X" xlink:href="#A" patternTransform="matrix(1 0 0 1 -4.8282 -23.7426)"/><use xlink:href="#f" y="30.2" fill="url(#X)"/><pattern id="Y" xlink:href="#A" patternTransform="matrix(1 0 0 1 -4.8282 -23.7426)"/><path d="M160.9 171.2h-18.1c-.8 0-1.4-.6-1.4-1.4h0c0-.8.6-1.4 1.4-1.4h18.1c.8 0 1.4.6 1.4 1.4h0c0 .7-.6 1.4-1.4 1.4z" fill="url(#Y)"/><pattern id="Z" xlink:href="#A" patternTransform="matrix(1 0 0 1 -4.8282 -23.7426)"/><use xlink:href="#g" y="30.2" fill="url(#Z)"/><defs ><path id="b" d="M180 156h-28.9c-.8 0-1.4-.6-1.4-1.4h0c0-.8.6-1.4 1.4-1.4H180c.8 0 1.4.6 1.4 1.4h0c0 .8-.6 1.4-1.4 1.4z"/><path id="c" d="M146 156h-3.2c-.8 0-1.4-.6-1.4-1.4h0c0-.8.6-1.4 1.4-1.4h3.2c.8 0 1.4.6 1.4 1.4h0c0 .8-.6 1.4-1.4 1.4z"/><path id="d" d="M163.5 131.1h-21.1c-.8 0-1.4-.6-1.4-1.4h0c0-.8.6-1.4 1.4-1.4h21.1c.8 0 1.4.6 1.4 1.4h0c.1.8-.6 1.4-1.4 1.4z"/><path id="e" d="M179 131.1h-11c-.8 0-1.4-.6-1.4-1.4h0c0-.8.6-1.4 1.4-1.4h11c.8 0 1.4.6 1.4 1.4h0c0 .8-.7 1.4-1.4 1.4z"/><path id="f" d="M170.1 146h-27.7c-.8 0-1.4-.6-1.4-1.4h0c0-.8.6-1.4 1.4-1.4h27.7c.8 0 1.4.6 1.4 1.4h0c0 .7-.6 1.4-1.4 1.4z"/><path id="g" d="M179 146h-5c-.8 0-1.4-.6-1.4-1.4h0c0-.8.6-1.4 1.4-1.4h5c.8 0 1.4.6 1.4 1.4h0c0 .7-.7 1.4-1.4 1.4z"/></defs></svg>