<svg xmlns="http://www.w3.org/2000/svg" xmlns:xlink="http://www.w3.org/1999/xlink" viewBox="0 0 350 350" xmlns:v="https://vecta.io/nano"><path d="M233.8 123.4v73.7c0 1.1-.9 1.9-1.9 1.9H118.1c-1.1 0-1.9-.9-1.9-1.9v-73.7c0-1.1.9-1.9 1.9-1.9h113.7c1.1 0 2 .8 2 1.9z" fill="#414042"/><path d="M125.7 121.5v77.6h-7.5c-1.1 0-1.9-.9-1.9-1.9v-73.7c0-1.1.9-1.9 1.9-1.9h7.5z" fill="#131819"/><path d="M183.5 117.9v73.5c0 1.1-.5 1.9-1.1 1.9h-59c-.6 0-1.1-.9-1.1-1.9v-73.5c0-1.1.5-1.9 1.1-1.9h59c.6-.1 1.1.8 1.1 1.9z" fill="#b4d3ed"/><path d="M128.7 115.9v77.3h-5c-.8 0-1.5-.9-1.5-1.9v-73.5c0-1.1.7-1.9 1.5-1.9h5zm46.3 0h8.5v77.3H175z" fill="#fff"/><g fill="#1976d2"><use xlink:href="#B"/><use xlink:href="#B" y="6.3"/><use xlink:href="#B" y="12.6"/><use xlink:href="#B" y="19"/><circle cx="147.7" cy="141.4" r="16.6"/></g><circle cx="147.7" cy="141.4" r="12.8" fill="#6bb0e8"/><path d="M150.9 153.9c-1 .3-2.1.4-3.2.4-7.1 0-12.8-5.8-12.8-12.8 0-7.1 5.8-12.8 12.8-12.8 1.1 0 2.1.1 3.2.4-5.6 1.4-9.7 6.5-9.7 12.5 0 5.8 4.1 10.9 9.7 12.3z" fill="#105fa0"/><path d="M156 137.6c0 .5-.2.9-.5 1.3l-7.2 7.2-.2.2c0 .1-.1.1-.1.2-.4.3-.8.5-1.3.5s-.9-.2-1.3-.5l-4.7-4.7a1.75 1.75 0 0 1 0-2.5c.3-.4.8-.5 1.3-.5s.9.2 1.3.5l3.5 3.5 6.3-6.3a1.75 1.75 0 0 1 2.5 0c.2.2.4.7.4 1.1z" fill="#fff"/><path d="M227.8 117.9v73.5c0 1.1-.9 1.9-1.9 1.9h-42.3V116h42.3c1-.1 1.9.8 1.9 1.9z" fill="#b4d3ed"/><circle cx="203.1" cy="141.4" r="16.6" fill="#1976d2"/><circle cx="203.1" cy="141.4" r="12.8" fill="#6bb0e8"/><path d="M206.3 153.8c-1 .3-2.1.4-3.2.4-7.1 0-12.8-5.8-12.8-12.8 0-7.1 5.8-12.8 12.8-12.8 1.1 0 2.1.1 3.2.4-5.6 1.4-9.7 6.5-9.7 12.5 0 5.9 4.2 10.9 9.7 12.3z" fill="#105fa0"/><path d="M207.5 142.4a1.75 1.75 0 0 1 0 2.5c-.4.4-.8.5-1.3.5s-.9-.2-1.3-.5l-2.8-2.8-2.8 2.8a1.75 1.75 0 0 1-2.5 0c-.4-.4-.5-.8-.5-1.3s.2-.9.5-1.3l2.8-2.8-2.8-2.8a1.75 1.75 0 0 1 0-2.5c.4-.3.8-.5 1.3-.5s.9.2 1.3.5l2.8 2.8 2.8-2.8a1.75 1.75 0 0 1 2.5 0c.4.3.5.8.5 1.3s-.2.9-.5 1.3l-2.8 2.8 2.8 2.8z" fill="#fff"/><g fill="#6bb0e8"><path d="M213.4 165.5h-22.6c-.7 0-1.3-.6-1.3-1.3v-.9c0-.7.6-1.3 1.3-1.3h22.6c.7 0 1.3.6 1.3 1.3v.9c0 .6-.6 1.3-1.3 1.3z"/><use xlink:href="#C"/><use xlink:href="#C" y="6.3"/><use xlink:href="#C" y="12.6"/></g><g fill="#105fa0"><use xlink:href="#D"/><use xlink:href="#D" y="16.3"/><use xlink:href="#D" y="32.5"/><use xlink:href="#D" y="49.2"/></g><defs ><path id="B" d="M159 165.5h-22.6c-.7 0-1.3-.6-1.3-1.3v-.9c0-.7.6-1.3 1.3-1.3H159c.7 0 1.3.6 1.3 1.3v.9c0 .7-.6 1.3-1.3 1.3z"/><path id="C" d="M213.4 171.8h-22.6c-.7 0-1.3-.6-1.3-1.3v-.9c0-.7.6-1.3 1.3-1.3h22.6c.7 0 1.3.6 1.3 1.3v.9c0 .7-.6 1.3-1.3 1.3z"/><path id="D" d="M180 130.7h-10c-.7 0-1.3-.6-1.3-1.3v-.9c0-.7.6-1.3 1.3-1.3h10c.7 0 1.3.6 1.3 1.3v.9c.1.7-.5 1.3-1.3 1.3z"/></defs></svg>