<?xml version="1.0" encoding="UTF-8"?>
<!DOCTYPE svg PUBLIC "-//W3C//DTD SVG 1.1//EN" "http://www.w3.org/Graphics/SVG/1.1/DTD/svg11.dtd">
<!-- Creator: CorelDRAW 2019 (64-Bit) -->
<svg xmlns="http://www.w3.org/2000/svg" xml:space="preserve" width="350px" height="350px" version="1.1"
    viewBox="0 0 350 350"
    xmlns:xlink="http://www.w3.org/1999/xlink"
    xmlns:xodm="http://www.corel.com/coreldraw/odm/2003" style="shape-rendering:geometricPrecision;text-rendering:geometricPrecision;image-rendering:optimizeQuality;fill-rule:evenodd;clip-rule:evenodd;" >
 <defs>
  <style type="text/css">
   <![CDATA[
    .str0 {stroke:#FEFEFE;stroke-width:0.9;stroke-miterlimit:22.9256}
    .fil0 {fill:none;fill-rule:nonzero}
    .fil4 {fill:#105F9F}
    .fil2 {fill:#1876D2}
    .fil3 {fill:#6BAFE8}
    .fil1 {fill:white}
   ]]>
  </style>
 </defs>
 <g id="Layer_x0020_1">
  <metadata id="CorelCorpID_0Corel-Layer"/>
  <g id="_1616602663936">
   <g>
    <polygon class="fil0" points="271.74,200.02 55.26,134.9 51.89,91.71 278.23,148.97 " style="fill:none;fill-rule:nonzero;" />
    <polyline class="fil0" points="120.19,61.69 324.21,103.15 316.91,148.01 " style="fill:none;fill-rule:nonzero;" />
    <line class="fil0" x1="271.74" y1="200.02" x2="316.91" y2= "148.01" style="fill:none;fill-rule:nonzero;" />
    <line class="fil0" x1="51.89" y1="91.71" x2="120.19" y2= "61.69" style="fill:none;fill-rule:nonzero;" />
    <line class="fil0" x1="278.23" y1="148.97" x2="324.21" y2= "103.15" style="fill:none;fill-rule:nonzero;" />
    <line class="fil0" x1="173.59" y1="210.64" x2="172.81" y2= "234.89" style="fill:none;fill-rule:nonzero;" />
    <line class="fil0" x1="172.81" y1="234.89" x2="185.86" y2= "227.38" style="fill:none;fill-rule:nonzero;" />
    <line class="fil0" x1="185.86" y1="227.38" x2="198.14" y2= "244.14" style="fill:none;fill-rule:nonzero;" />
    <line class="fil0" x1="198.14" y1="244.14" x2="199.58" y2= "219.49" style="fill:none;fill-rule:nonzero;" />
    <line class="fil0" x1="199.58" y1="219.49" x2="173.59" y2= "210.64" style="fill:none;fill-rule:nonzero;" />
    <line class="fil0" x1="199.58" y1="219.49" x2="231.87" y2= "188.02" style="fill:none;fill-rule:nonzero;" />
    <line class="fil0" x1="207.42" y1="180.67" x2="173.59" y2= "210.64" style="fill:none;fill-rule:nonzero;" />
    <polyline class="fil0" points="161.74,166.93 125.37,194.2 126.05,240.13 " style="fill:none;fill-rule:nonzero;" />
    <polygon class="fil0" points="250.04,288.31 337.68,169.5 345,130 255.8,238.65 " style="fill:none;fill-rule:nonzero;" />
    <line class="fil0" x1="126.05" y1="240.13" x2="250.04" y2= "288.31" style="fill:none;fill-rule:nonzero;" />
    <line class="fil0" x1="320.72" y1="124.6" x2="345" y2= "130" style="fill:none;fill-rule:nonzero;" />
    <line class="fil0" x1="125.37" y1="194.2" x2="255.8" y2= "238.65" style="fill:none;fill-rule:nonzero;" />
    <line class="fil0" x1="41.61" y1="165.66" x2="43.66" y2= "187.72" style="fill:none;fill-rule:nonzero;" />
    <line class="fil0" x1="43.66" y1="187.72" x2="52.21" y2= "180.18" style="fill:none;fill-rule:nonzero;" />
    <line class="fil0" x1="52.21" y1="180.18" x2="62.82" y2= "194.72" style="fill:none;fill-rule:nonzero;" />
    <line class="fil0" x1="62.82" y1="194.72" x2="61.14" y2= "172.32" style="fill:none;fill-rule:nonzero;" />
    <line class="fil0" x1="61.14" y1="172.32" x2="41.61" y2= "165.66" style="fill:none;fill-rule:nonzero;" />
    <line class="fil0" x1="61.14" y1="172.32" x2="100.31" y2= "148.45" style="fill:none;fill-rule:nonzero;" />
    <line class="fil0" x1="81.48" y1="142.79" x2="41.61" y2= "165.66" style="fill:none;fill-rule:nonzero;" />
    <polyline class="fil0" points="54.7,127.68 5,153.18 10.28,195.15 " style="fill:none;fill-rule:nonzero;" />
    <polyline class="fil0" points="140.38,160.5 102.96,186.57 104.59,231.8 125.68,214.96 " style="fill:none;fill-rule:nonzero;" />
    <line class="fil0" x1="10.28" y1="195.15" x2="104.59" y2= "231.8" style="fill:none;fill-rule:nonzero;" />
    <line class="fil0" x1="5" y1="153.18" x2="102.96" y2= "186.57" style="fill:none;fill-rule:nonzero;" />
    <line class="fil0" x1="82.74" y1="99.51" x2="82.69" y2= "99.63" style="fill:none;fill-rule:nonzero;" />
    <line class="fil0" x1="82.69" y1="99.63" x2="82.68" y2= "99.5" style="fill:none;fill-rule:nonzero;" />
    <line class="fil0" x1="81.61" y1="78.65" x2="95.2" y2= "72.67" style="fill:none;fill-rule:nonzero;" />
    <line class="fil0" x1="298.62" y1="128.65" x2="295.08" y2= "153.39" style="fill:none;fill-rule:nonzero;" />
    <line class="fil0" x1="295.08" y1="153.39" x2="301.45" y2= "136.37" style="fill:none;fill-rule:nonzero;" />
    <line class="fil0" x1="301.45" y1="136.37" x2="304.13" y2= "143.65" style="fill:none;fill-rule:nonzero;" />
    <line class="fil0" x1="304.13" y1="143.65" x2="307.75" y2= "119.56" style="fill:none;fill-rule:nonzero;" />
    <line class="fil0" x1="307.75" y1="119.56" x2="298.62" y2= "128.65" style="fill:none;fill-rule:nonzero;" />
    <line class="fil0" x1="307.75" y1="119.56" x2="95.2" y2= "72.67" style="fill:none;fill-rule:nonzero;" />
    <line class="fil0" x1="81.61" y1="78.65" x2="298.62" y2= "128.65" style="fill:none;fill-rule:nonzero;" />
   </g>
   <polygon class="fil1" points="61.14,172.32 41.61,165.66 43.66,187.72 52.21,180.18 62.82,194.72 " style="fill:white;" />
   <polygon class="fil1" points="41.61,165.66 61.14,172.32 100.31,148.45 81.48,142.79 " style="fill:white;" />
   <polygon class="fil1" points="173.59,210.64 172.81,234.89 185.86,227.38 198.14,244.14 199.58,219.49 " style="fill:white;" />
   <polygon class="fil1" points="173.59,210.64 199.58,219.49 231.87,188.02 207.42,180.67 " style="fill:white;" />
   <polygon class="fil2" points="301.45,136.37 295.08,153.39 298.62,128.65 278.23,148.97 271.74,200.02 316.91,148.01 320.72,124.6 324.21,103.15 307.75,119.56 304.13,143.65 " style="fill:#1876D2;" />
   <polygon class="fil1" points="301.45,136.37 304.13,143.65 307.75,119.56 298.62,128.65 295.08,153.39 " style="fill:white;" />
   <polygon class="fil1" points="81.61,78.65 298.62,128.65 307.75,119.56 95.2,72.67 " style="fill:white;" />
   <polygon class="fil2" points="255.8,238.65 199.58,219.49 198.14,244.14 185.86,227.38 172.81,234.89 173.59,210.64 125.37,194.2 125.68,214.96 126.05,240.13 250.04,288.31 " style="fill:#1876D2;" />
   <polygon class="fil2" points="104.59,231.8 102.96,186.57 61.14,172.32 62.82,194.72 52.21,180.18 43.66,187.72 41.61,165.66 5,153.18 10.28,195.15 " style="fill:#1876D2;" />
   <polygon class="fil3" points="41.61,165.66 81.48,142.79 55.26,134.9 54.7,127.68 5,153.18 " style="fill:#6BAFE8;" />
   <polygon class="fil3" points="100.31,148.45 61.14,172.32 102.96,186.57 140.38,160.5 " style="fill:#6BAFE8;" />
   <polygon class="fil4" points="140.38,160.5 102.96,186.57 104.59,231.8 125.68,214.96 125.37,194.2 161.74,166.93 " style="fill:#105F9F;" />
   <polygon class="fil4" points="140.38,160.5 161.74,166.93 207.42,180.67 231.87,188.02 271.74,200.02 278.23,148.97 82.74,99.51 82.69,99.63 82.68,99.5 51.89,91.71 54.7,127.68 55.26,134.9 81.48,142.79 100.31,148.45 " style="fill:#105F9F;" />
   <polygon class="fil3" points="82.74,99.51 278.23,148.97 298.62,128.65 81.61,78.65 51.89,91.71 82.68,99.5 " style="fill:#6BAFE8;" />
   <polygon class="fil3" points="95.2,72.67 307.75,119.56 324.21,103.15 120.19,61.69 " style="fill:#6BAFE8;" />
   <polygon class="fil3" points="207.42,180.67 161.74,166.93 125.37,194.2 173.59,210.64 " style="fill:#6BAFE8;" />
   <polygon class="fil3" points="231.87,188.02 199.58,219.49 255.8,238.65 345,130 320.72,124.6 316.91,148.01 271.74,200.02 " style="fill:#6BAFE8;" />
   <polygon class="fil4" points="345,130 255.8,238.65 250.04,288.31 337.68,169.5 " style="fill:#105F9F;" />
  </g>
  <g>
   <polygon class="fil0 str0" points="356.25,5 6.25,5 6.25,355 356.25,355 " style="fill:none;fill-rule:nonzero;" />
  </g>
 </g>
</svg>
