<?xml version="1.0" encoding="UTF-8"?>
<!DOCTYPE svg PUBLIC "-//W3C//DTD SVG 1.1//EN" "http://www.w3.org/Graphics/SVG/1.1/DTD/svg11.dtd">
<!-- Creator: CorelDRAW 2019 (64-Bit) -->
<svg xmlns="http://www.w3.org/2000/svg" xml:space="preserve" width="350px" height="350px" version="1.1"
    viewBox="0 0 350 350"
    xmlns:xlink="http://www.w3.org/1999/xlink"
    xmlns:xodm="http://www.corel.com/coreldraw/odm/2003" style="shape-rendering:geometricPrecision;text-rendering:geometricPrecision;image-rendering:optimizeQuality;fill-rule:evenodd;clip-rule:evenodd;" >
 <defs>
  <style type="text/css">
   <![CDATA[
    .str0 {stroke:#FEFEFE;stroke-width:0.9;stroke-miterlimit:22.9256}
    .str1 {stroke:#105F9F;stroke-width:0.9;stroke-miterlimit:22.9256}
    .str2 {stroke:#6BAFE8;stroke-width:0.9;stroke-miterlimit:22.9256}
    .str3 {stroke:white;stroke-width:0.9;stroke-miterlimit:22.9256}
    .fil0 {fill:none;fill-rule:nonzero}
    .fil1 {fill:#105F9F}
    .fil2 {fill:#6BAFE8}
    .fil4 {fill:white}
    .fil3 {fill:white;fill-rule:nonzero}
   ]]>
  </style>
 </defs>
 <g id="Layer_x0020_1">
  <metadata id="CorelCorpID_0Corel-Layer"/>
  <g>
   <polygon class="fil0 str0" points="350,0 0,0 0,350 350,350 " style="fill:none;fill-rule:nonzero;" />
  </g>
  <path class="fil1 str1" d="M40 17.5l270 0c8.25,0 15,6.75 15,15l0 213c0,1.1 -0.9,2 -2,2l-296 0c-1.1,0 -2,-0.9 -2,-2l0 -213c0,-8.25 6.75,-15 15,-15z" style="stroke:#105F9F;stroke-width:0.9;stroke-miterlimit:22.9256;fill:#105F9F;" />
  <rect class="fil2" x="25" y="267.5" width="300" height="35" style="fill:#6BAFE8;" />
  <polygon class="fil2 str2" points="55,332.5 70,317.5 85,302.5 55,302.5 25,302.5 40,317.5 " style="stroke:#6BAFE8;stroke-width:0.9;stroke-miterlimit:22.9256;fill:#6BAFE8;" />
  <polygon class="fil2 str2" points="115,332.5 130,317.5 145,302.5 115,302.5 85,302.5 100,317.5 " style="stroke:#6BAFE8;stroke-width:0.9;stroke-miterlimit:22.9256;fill:#6BAFE8;" />
  <polygon class="fil2 str2" points="175,332.5 190,317.5 205,302.5 175,302.5 145,302.5 160,317.5 " style="stroke:#6BAFE8;stroke-width:0.9;stroke-miterlimit:22.9256;fill:#6BAFE8;" />
  <polygon class="fil2 str2" points="235,332.5 250,317.5 265,302.5 235,302.5 205,302.5 220,317.5 " style="stroke:#6BAFE8;stroke-width:0.9;stroke-miterlimit:22.9256;fill:#6BAFE8;" />
  <polygon class="fil2 str2" points="295,332.5 310,317.5 325,302.5 295,302.5 265,302.5 280,317.5 " style="stroke:#6BAFE8;stroke-width:0.9;stroke-miterlimit:22.9256;fill:#6BAFE8;" />
  <path class="fil3" d="M160 156.59c0,9.29 -3.75,16.77 -11.27,22.45 -7.53,5.68 -17.55,9.26 -30.03,10.75l0 22.71 -23.54 0 0 -22.19c-17.27,-1.15 -32.32,-5.51 -45.16,-13.08l13.73 -17.03c13.31,6.77 26.32,10.15 39.06,10.15 8.17,0 14.55,-1.03 19.19,-3.1 4.67,-2.06 6.99,-5.16 6.99,-9.29 0,-2.52 -0.75,-4.61 -2.25,-6.28 -1.5,-1.66 -4.17,-3.27 -7.95,-4.82 -3.78,-1.54 -9.49,-3.52 -17.05,-5.93l-4.96 -1.55c-9.13,-2.87 -16.51,-5.62 -22.08,-8.26 -5.6,-2.63 -10.02,-6.02 -13.34,-10.15 -3.28,-4.13 -4.92,-9.34 -4.92,-15.65 0,-5.85 1.75,-10.87 5.24,-15.06 3.5,-4.18 8.17,-7.51 14.02,-9.98 5.85,-2.46 12.34,-4.15 19.48,-5.07l0 -22.71 23.54 0 0 22.37c6.52,0.68 13.09,2.03 19.69,4.04 6.59,2.01 12.87,4.67 18.83,8l-13.88 16.86c-6.81,-3.33 -12.87,-5.74 -18.12,-7.23 -5.27,-1.49 -10.95,-2.23 -17.08,-2.23 -6.81,0 -11.99,0.91 -15.45,2.75 -3.49,1.83 -5.24,4.3 -5.24,7.4 0,1.95 0.71,3.7 2.14,5.24 1.43,1.55 3.96,3.1 7.67,4.65 3.71,1.55 9.02,3.35 16.02,5.42l4.67 1.38c9.13,2.75 16.48,5.33 22.11,7.74 5.6,2.41 10.34,5.85 14.16,10.32 3.85,4.47 5.78,10.26 5.78,17.38z" style="fill:white;fill-rule:nonzero;" />
  <rect class="fil4 str3" x="190" y="62.5" width="110" height="20" rx="7.28" ry="4" style="stroke:white;stroke-width:0.9;stroke-miterlimit:22.9256;fill:white;" />
  <rect class="fil4 str3" x="190" y="122.5" width="110" height="20" rx="7.28" ry="4" style="stroke:white;stroke-width:0.9;stroke-miterlimit:22.9256;fill:white;" />
  <rect class="fil4 str3" x="190" y="182.5" width="110" height="20" rx="7.28" ry="4" style="stroke:white;stroke-width:0.9;stroke-miterlimit:22.9256;fill:white;" />
 </g>
</svg>
