<svg xmlns="http://www.w3.org/2000/svg" xmlns:xlink="http://www.w3.org/1999/xlink" viewBox="0 0 350 350" xmlns:v="https://vecta.io/nano"><pattern width="30.4" height="33.6" patternUnits="userSpaceOnUse" id="A" viewBox="0 -33.6 30.4 33.6" overflow="visible"><path d="M0-33.6h30.4V0H0z" fill="#6bb0e8"/></pattern><pattern width="30.4" height="33.6" patternUnits="userSpaceOnUse" id="B" viewBox="0 -33.6 30.4 33.6" overflow="visible"><path d="M0-33.6h30.4V0H0z" fill="#b4d3ed"/></pattern><pattern width="30.4" height="33.6" patternUnits="userSpaceOnUse" id="C" viewBox="0 -33.6 30.4 33.6" overflow="visible"><path d="M0-33.6h30.4V0H0z" fill="#105fa0"/></pattern><pattern width="30.4" height="33.6" patternUnits="userSpaceOnUse" id="D" viewBox="0 -33.6 30.4 33.6" overflow="visible"><path d="M0-33.6h30.4V0H0z" fill="#1976d2"/></pattern><pattern id="E" xlink:href="#B" patternTransform="matrix(1 0 0 1 -7.1252 -8.4879)"/><path d="M139.6 136.5h65.5v64.1h-65.5z" fill="url(#E)"/><pattern id="F" xlink:href="#A" patternTransform="matrix(1 0 0 1 -7.1252 -8.4879)"/><path d="M232.3 109.5v75.1c0 4.3-3.5 7.8-7.8 7.8h-66.8l.1-.1c3.9-.6 6.8-3.9 6.8-7.9v-74.9h67.7z" fill="url(#F)"/><pattern id="G" xlink:href="#C" patternTransform="matrix(1 0 0 1 -7.1252 -8.4879)"/><path d="M164.6 132v52.4c0 4-3 7.3-6.8 7.9-.4.1-.8.1-1.2.1-4.4 0-8-3.6-8-8V132h16z" fill="url(#G)"/><pattern id="H" xlink:href="#D" patternTransform="matrix(1 0 0 1 -7.1252 -8.4879)"/><path d="M177.5 172.3h41.7v8.8h-41.7z" fill="url(#H)"/><path d="M194.8 159.2c-1.2-.3-2.3-.8-3.4-1.5-1.1-.6-2-1.5-3-2.4l2.9-3.5c1 1.2 2.1 2.1 3.3 2.7s2.5.9 4 .9c2 0 3.5-.4 4.4-1.2 1-.8 1.5-1.9 1.5-3.5h0c0-1-.2-1.8-.7-2.4s-1.1-1-1.8-1.3c-.8-.3-1.7-.6-2.9-.8h-.1-.1-.2-.2c-1.9-.3-3.4-.7-4.5-1.2-1.2-.4-2.1-1.2-3-2.3-.8-1.1-1.2-2.7-1.2-4.8h0c0-2 .4-3.7 1.1-5.1s1.8-2.4 3.3-3c1.5-.7 3.3-1 5.5-1 1 0 1.9.1 2.9.3s1.9.5 2.8.9 1.9.9 2.8 1.5l-2.6 3.5c-1-.7-2-1.2-3-1.6-1-.3-2-.5-2.9-.5-1.8 0-3.2.4-4.1 1.1-.9.8-1.4 1.9-1.4 3.4h0c0 1 .3 1.9.8 2.5s1.2 1 2 1.3 1.9.6 3.3.9h.2.2.2.2c1.6.4 3 .8 4.1 1.3s2 1.4 2.8 2.5c.7 1.2 1.1 2.7 1.1 4.7h0c0 2-.4 3.6-1.1 4.9-.8 1.3-1.9 2.3-3.4 2.9s-3.4 1-5.7 1c-1.6.3-2.9.1-4.1-.2zm2.1-33.9h4.3v4.8h-4.3v-4.8zm0 32.7h4.3v5h-4.3v-5z" fill="#fff"/></svg>