<svg xmlns="http://www.w3.org/2000/svg" xmlns:xlink="http://www.w3.org/1999/xlink" viewBox="0 0 350 350" xmlns:v="https://vecta.io/nano"><path d="M195.3 210.8H152c-10.5 0-19.1-8.6-19.1-19.1v-59.6c0-10.5 8.6-19.1 19.1-19.1h43.4c10.5 0 19.1 8.6 19.1 19.1v59.6c0 10.5-8.6 19.1-19.2 19.1z" fill="#1976d2"/><path d="M197.9 202.8h-49a8.28 8.28 0 0 1-8.3-8.3v-66a8.28 8.28 0 0 1 8.3-8.3h49a8.28 8.28 0 0 1 8.3 8.3v66a8.28 8.28 0 0 1-8.3 8.3z" fill="#fff"/><path d="M184.2 124.8H163c-3.2 0-5.8-2.6-5.8-5.8v-4.4c0-3.2 2.6-5.8 5.8-5.8h21.2c3.2 0 5.8 2.6 5.8 5.8v4.4c.1 3.2-2.6 5.8-5.8 5.8z" fill="#040404"/><g fill="#6bb0e8"><path d="M195.9 139.3H173a1.54 1.54 0 0 1-1.5-1.5v-1.1a1.54 1.54 0 0 1 1.5-1.5h22.9a1.54 1.54 0 0 1 1.5 1.5v1.1a1.47 1.47 0 0 1-1.5 1.5z"/><use xlink:href="#B"/><use xlink:href="#B" y="16.5"/><path d="M195.9 156.2H173a1.54 1.54 0 0 1-1.5-1.5v-1.1a1.54 1.54 0 0 1 1.5-1.5h22.9a1.54 1.54 0 0 1 1.5 1.5v1.1a1.54 1.54 0 0 1-1.5 1.5z"/></g><g fill="#105fa0"><use xlink:href="#C"/><path d="M167.1 156.4l-10.2 14.2-.3.4c-.4.5-.9.8-1.5.8-.5 0-.9-.2-1.3-.5l-4.3-4.3c-.7-.7-.7-1.9 0-2.6.4-.4.8-.5 1.3-.5s.9.2 1.3.5l2.5 2.5 9.2-12.8c.6-.8 1.7-1 2.6-.4l.2.1c.9.6 1.1 1.7.5 2.6z"/><use xlink:href="#C" y="42.9"/></g><path d="M156.9 148.2c-.1.2-.2.4-.4.6-.4.4-.9.5-1.3.5.6 0 1.1-.3 1.5-.8l.2-.3zm-1.7 1.2c-.4 0-.8-.1-1.1-.3l-.2-.1-.6-.6.6.6c.3.2.8.4 1.3.4z" fill="#47a920"/><path d="M173.8 173.8h50.3c.9 0 1.7.6 1.9 1.4l4.5 16.4s11.5 2.2 11.3 9.3v9.2c0 1.1-.9 2-2 2h-66c-1.1 0-2-.9-2-2v-34.5c0-.9.9-1.8 2-1.8z" fill="#6bb0e8"/><path d="M174.7 176.6h32.7v5.2h-32.7z" fill="#1976d2"/><path d="M174.7 184.5h32.7v25.2h-32.7z" fill="#105fa0"/><circle cx="183.9" cy="211" r="7.4" fill="#231f20"/><circle cx="183.8" cy="211.2" r="4.7" fill="#fff"/><path d="M210 209.7h29.1v-7.8c.7-6-11-7.8-11-7.8l-4.5-17.8H210v33.4z" fill="#b4d3ed"/><path d="M214.3 181v8h6.8l-1.6-8z" fill="#105fa0"/><circle cx="223.7" cy="211" r="7.4" fill="#231f20"/><circle cx="223.5" cy="211.1" r="4.7" fill="#fff"/><defs ><path id="B" d="M186.3 147.2h-13.4c-.7 0-1.3-.6-1.3-1.3v-1c0-.7.6-1.3 1.3-1.3h13.4c.7 0 1.3.6 1.3 1.3v1c0 .7-.6 1.3-1.3 1.3z"/><path id="C" d="M167.1 134l-10.2 14.2-.3.4c-.4.5-.9.8-1.5.8-.5 0-.9-.2-1.3-.5l-4.3-4.3c-.7-.7-.7-1.9 0-2.6.4-.4.8-.5 1.3-.5s.9.2 1.3.5l2.5 2.5 9.2-12.8c.6-.8 1.7-1 2.6-.4l.2.1c.9.6 1.1 1.8.5 2.6z"/></defs></svg>