<svg xmlns="http://www.w3.org/2000/svg" xmlns:xlink="http://www.w3.org/1999/xlink" viewBox="0 0 350 350" xmlns:v="https://vecta.io/nano"><pattern y="350" width="30.4" height="33.6" patternUnits="userSpaceOnUse" id="A" viewBox="0 -33.6 30.4 33.6" overflow="visible"><path d="M0-33.6h30.4V0H0z" fill="#6bb0e8"/></pattern><pattern id="B" xlink:href="#A" patternTransform="matrix(1 0 0 1 -8.1252 -23.7426)"/><path d="M153.5 178.1h5.3v4.3h-5.3z" fill="url(#B)"/><pattern id="C" xlink:href="#A" patternTransform="matrix(1 0 0 1 -8.1252 -23.7426)"/><path d="M161 174.6h5.3v7.8H161z" fill="url(#C)"/><pattern id="D" xlink:href="#A" patternTransform="matrix(1 0 0 1 -8.1252 -23.7426)"/><path d="M168.9 168.9h5.3v13.5h-5.3z" fill="url(#D)"/><pattern id="E" xlink:href="#A" patternTransform="matrix(1 0 0 1 -8.1252 -23.7426)"/><path d="M176.9 161.6h5.3v20.8h-5.3z" fill="url(#E)"/><pattern id="F" xlink:href="#A" patternTransform="matrix(1 0 0 1 -8.1252 -23.7426)"/><path d="M184.6 157.7h5.3v24.7h-5.3z" fill="url(#F)"/><pattern id="G" xlink:href="#A" patternTransform="matrix(1 0 0 1 -8.1252 -23.7426)"/><path d="M192.3 152.5h5.3v30h-5.3z" fill="url(#G)"/><pattern id="H" xlink:href="#A" patternTransform="matrix(1 0 0 1 -8.1252 -23.7426)"/><path d="M200.2 141.3h5.3v41.2h-5.3z" fill="url(#H)"/><path d="M175.6 209.8l-49.1.2V99.9h109.8v42.5l-12.2-.3v-30.8l-85.1.6v85.7h36.7z" fill="#105fa0"/><path d="M212.1 130.5h-61.2v-18.7l61.2-.5z" fill="#6bb0e8"/><path d="M195.4 100.4c0-8.3-7.1-15-15.9-15s-15.9 6.7-15.9 15h31.8z" fill="#231f20"/><circle cx="179.8" cy="99.9" r="3.6" fill="#fff"/><ellipse cx="216.5" cy="184.2" rx="26.7" ry="26.3" fill="#1976d2"/><path d="M230.9 177.2c0 .5-.2 1-.6 1.4l-15 14.7h0c-.2.2-.5.4-.8.5-.7.2-1.5 0-2-.5L205 186c-.4-.4-.6-.9-.6-1.4s.2-1 .6-1.4c.8-.8 2.1-.8 2.8 0l6.1 6 13.6-13.3c.8-.8 2.1-.8 2.8 0 .4.3.6.8.6 1.3z" fill="#fff"/></svg>