<svg xmlns="http://www.w3.org/2000/svg" xmlns:xlink="http://www.w3.org/1999/xlink" viewBox="0 0 350 350" xmlns:v="https://vecta.io/nano"><pattern y="350" width="30.4" height="33.6" patternUnits="userSpaceOnUse" id="A" viewBox="0 -33.6 30.4 33.6" overflow="visible"><path d="M0-33.6h30.4V0H0z" fill="#105fa0"/></pattern><pattern y="350" width="30.4" height="33.6" patternUnits="userSpaceOnUse" id="B" viewBox="0 -33.6 30.4 33.6" overflow="visible"><path d="M0-33.6h30.4V0H0z" fill="#6bb0e8"/></pattern><pattern id="C" xlink:href="#A" patternTransform="matrix(1 0 0 1 -8.1252 -23.7426)"/><path d="M138.2 168.9H239V188H138.2z" fill="url(#C)"/><pattern id="D" xlink:href="#A" patternTransform="matrix(1 0 0 1 -8.1252 -23.7426)"/><path d="M141.9 168.9h-3.6l-6.3-55h2.3c.6 0 1-.5 1-1v-1.5-.3l6.6 57.8z" fill="url(#D)"/><path d="M135.3 111.4v1.5c0 .6-.5 1-1 1h-17.8c-.6 0-1-.5-1-1v-7.7c0-.6.5-1 1-1h11.6c1.6 0 3 .5 4.2 1.4 1.4 1.1 2.5 2.6 2.8 4.5l.1 1.1c.1 0 .1.1.1.2z" fill="#040404"/><path d="M135.3,111.1l-0.1-1.1C135.3,110.4,135.3,110.7,135.3,111.1z" fill="none" stroke="url(#A)" stroke-miterlimit="10"/><path d="M156.5 89.7h33.4v70.2h-33.4z" fill="#6bb0e8"/><path d="M166.7 89.7v16l6.7-4.4 7.1 4.4v-16z" fill="#231f20"/><path d="M199.2 122.3h31.9v37.6h-31.9z" fill="#6bb0e8"/><pattern id="E" xlink:href="#B" patternTransform="matrix(1 0 0 1 -8.1252 -23.7426)"/><circle cx="157.7" cy="187.8" r="9.1" fill="url(#E)" stroke="#fff" stroke-width="5"/><pattern id="F" xlink:href="#B" patternTransform="matrix(1 0 0 1 -8.1252 -23.7426)"/><circle cx="222" cy="187.8" r="9.1" fill="url(#F)" stroke="#fff" stroke-width="5"/><path d="M208.2 122.3v16l6.7-4.4 7.1 4.4v-16z" fill="#231f20"/></svg>