<svg xmlns="http://www.w3.org/2000/svg" xmlns:xlink="http://www.w3.org/1999/xlink" viewBox="0 0 350 350" xmlns:v="https://vecta.io/nano"><circle cx="165" cy="106.5" r="13.7" fill="#105fa0"/><path d="M141.9 143.1s-4.1-16.1 16.3-19.5l6.8 8 7.1-8s18.1 2.1 15.6 19.5h-45.8z" fill="#6bb0e8"/><circle cx="123.7" cy="152.3" r="9.2" fill="#105fa0"/><use xlink:href="#B" fill="#1976d2"/><circle cx="164.9" cy="177.7" r="9.2" fill="#105fa0"/><use xlink:href="#B" x="41.2" y="25.3" fill="#4691ce"/><circle cx="207.1" cy="152.3" r="9.2" fill="#105fa0"/><use xlink:href="#B" x="83.4" fill="#1c68a5"/><g fill="#040404"><path d="M121.9 126l14 7.3-12.2 5.3z"/><path d="M126.7 128.5s6.2-12.6 21.7-17.1l2.2 4.9s-11.8 1.7-20.1 15.2l-3.8-3zm82.4-2.5l-13.9 7.3 12.2 5.3z"/><path d="M204.4 128.5s-6.2-12.6-21.7-17.1l-2.2 4.9s11.8 1.7 20.1 15.2l3.8-3zm-77.8 52.9h6.3s6.2 9.1 14.2 11.4l-2 5.4s-12.9-6.3-18.5-16.8zm77.8 0h-6.3s-6.2 9.1-14.2 11.4l2 5.4s12.9-6.3 18.5-16.8z"/></g><defs ><path id="B" d="M108.1 177s-2.8-10.8 11-13.1l4.6 5.4 4.8-5.4s12.2 1.4 10.5 13.1h-30.9z"/></defs></svg>