<svg xmlns="http://www.w3.org/2000/svg" xmlns:xlink="http://www.w3.org/1999/xlink" viewBox="0 0 350 350" xmlns:v="https://vecta.io/nano"><style><![CDATA[.H{fill:#b4d3ed}.I{clip-path:url(#H)}.J{clip-path:url(#D)}.K{clip-path:url(#J)}.L{clip-path:url(#F)}.M{fill:#105fa0}]]></style><pattern width="30.4" height="33.6" patternUnits="userSpaceOnUse" id="A" viewBox="0 -33.6 30.4 33.6" overflow="visible"><path d="M0-33.6h30.4V0H0z" fill="#6bb0e8"/></pattern><pattern width="30.4" height="33.6" patternUnits="userSpaceOnUse" id="B" viewBox="0 -33.6 30.4 33.6" overflow="visible"><path d="M0-33.6h30.4V0H0z" class="M"/></pattern><defs><path id="C" d="M143.5 186.2s6.7-7.2 16.7-2.8c6.6 2.9 14.2 2.3 20.2-1.7l16.9-11.2c1.6-1.1 2.7-2.9 2.6-4.9 0-1.6-.8-3.2-3.5-3.6-1.3-.2-2.7 0-3.9.5l-16.2 6.7c-.7.3-1.6 0-2-.7-1.1-2.2-4.9-6.3-16.8-6.6-.4 0-.7 0-1.1-.1-2.8-.2-17.5-.9-25 10.8l12.1 13.6z"/></defs><clipPath id="D"><use xlink:href="#C"/></clipPath><g class="J H"><path d="M194.6 160.7h8.7v9.6h-8.7z"/></g><g class="J H"><path d="M194.6 170.3h8.7v9.6h-8.7z"/></g><g class="J H"><path d="M194.6 179.9h8.7v9.6h-8.7z"/></g><g class="J H"><path d="M185.9 160.7h8.7v9.6h-8.7z"/></g><g class="J H"><path d="M185.9 170.3h8.7v9.6h-8.7z"/></g><g class="J H"><path d="M185.9 179.9h8.7v9.6h-8.7z"/></g><g class="J H"><path d="M177.2 160.7h8.7v9.6h-8.7z"/></g><g class="J H"><path d="M177.2 170.3h8.7v9.6h-8.7z"/></g><g class="J H"><path d="M177.2 179.9h8.7v9.6h-8.7z"/></g><g class="J H"><path d="M168.5 160.7h8.7v9.6h-8.7z"/></g><g class="J H"><path d="M168.5 170.3h8.7v9.6h-8.7z"/></g><g class="J H"><path d="M168.5 179.9h8.7v9.6h-8.7z"/></g><g class="J H"><path d="M159.9 160.7h8.7v9.6h-8.7z"/></g><g class="J H"><path d="M159.9 170.3h8.7v9.6h-8.7z"/></g><g class="J H"><path d="M159.9 179.9h8.7v9.6h-8.7z"/></g><g class="J H"><path d="M151.2 160.7h8.7v9.6h-8.7z"/></g><g class="J H"><path d="M151.2 170.3h8.7v9.6h-8.7z"/></g><g class="J H"><path d="M151.2 179.9h8.7v9.6h-8.7z"/></g><g class="J H"><path d="M142.5 160.7h8.7v9.6h-8.7z"/></g><g class="J H"><path d="M142.5 170.3h8.7v9.6h-8.7z"/></g><g class="J H"><path d="M142.5 179.9h8.7v9.6h-8.7z"/></g><g class="J H"><path d="M133.8 160.7h8.7v9.6h-8.7z"/></g><g class="J H"><path d="M133.8 170.3h8.7v9.6h-8.7z"/></g><g class="J H"><path d="M133.8 179.9h8.7v9.6h-8.7z"/></g><g class="J H"><path d="M125.1 160.7h8.7v9.6h-8.7z"/></g><g class="J H"><path d="M125.1 170.3h8.7v9.6h-8.7z"/></g><g class="J H"><path d="M125.1 179.9h8.7v9.6h-8.7z"/></g><path d="M143.5 187.6l-13.4-14.8.4-.6c7.8-12.1 23-11.5 25.9-11.3.3 0 .7 0 1 .1 12.3.3 16.4 4.6 17.7 7.1.1.3.4.4.7.3l16.2-6.7c1.5-.6 3-.8 4.5-.6 2.7.4 4.3 2 4.4 4.6.1 2.2-1.1 4.4-3.1 5.7l-16.9 11.2c-6.3 4.2-14.2 4.8-21.1 1.8-9.2-4.1-15.4 2.5-15.5 2.6l-.8.6zm-10.9-15l10.9 12.1c2.2-1.8 8.5-6.1 17-2.3 6.3 2.8 13.5 2.2 19.2-1.6l16.9-11.2c1.4-.9 2.2-2.4 2.2-4s-.9-2.4-2.6-2.6c-1.1-.2-2.3 0-3.4.5l-16.2 6.7c-1.2.5-2.6 0-3.2-1.2-.9-1.7-4.3-5.8-16-6.1-.4 0-.8 0-1.2-.1-2.6-.1-16.3-.7-23.6 9.8z" class="M"/><defs><path id="E" d="M175.6 168.7l10.5-11.3c1.1-1.2 2.7-1.9 4.3-1.7 1 .1 2.1.5 2.8 1.5 1.5 2.1.5 5.1-2 6l-15.5 5.8c-.1 0-.3-.2-.1-.3z"/></defs><clipPath id="F"><use xlink:href="#E"/></clipPath><g class="L H"><path d="M185.9 151.1h8.7v9.6h-8.7z"/></g><g class="L H"><path d="M185.9 160.7h8.7v9.6h-8.7z"/></g><g class="L H"><path d="M177.2 151.1h8.7v9.6h-8.7z"/></g><g class="L H"><path d="M177.2 160.7h8.7v9.6h-8.7z"/></g><g class="L H"><path d="M168.5 151.1h8.7v9.6h-8.7z"/></g><g class="L H"><path d="M168.5 160.7h8.7v9.6h-8.7z"/></g><g class="M"><path d="M175.7 170c-.4 0-.8-.2-1-.5-.3-.5-.3-1.1.1-1.5l10.5-11.3c1.3-1.4 3.3-2.2 5.2-2 1.5.1 2.7.8 3.5 1.9.9 1.2 1.1 2.8.6 4.2-.5 1.5-1.6 2.7-3.1 3.3l-15.5 5.8c0 .1-.1.1-.3.1zm.6-.6h0zm-.7-.7h0 0zm14.4-12.1c-1.2 0-2.3.5-3.2 1.4l-8.2 8.8 12.2-4.6c.9-.3 1.6-1.1 1.9-2s.1-1.8-.4-2.5c-.5-.6-1.1-1-2-1.1h-.3z"/><path d="M170.4 173.7h-.7l-11.9-1.5c-.5-.1-.9-.6-.9-1.1.1-.5.6-.9 1.1-.9l11.9 1.5c1.7.2 3.3-.9 3.7-2.5v-.2c.1-.5.6-.9 1.1-.8s.9.6.8 1.1c0 .1 0 .2-.1.3-.3 2.3-2.5 4.1-5 4.1zm-42.6 23.4l-9.7-10.7c-2.5-2.8-2.3-7.2.5-9.7l3.9-3.5c2.8-2.5 7.2-2.3 9.7.5l9.7 10.7c2.5 2.8 2.3 7.2-.5 9.7l-3.9 3.5c-2.8 2.6-7.1 2.3-9.7-.5z"/></g><path d="M132.6 202.3h-.1c-.8 0-1.4-.4-2-.9l-16.3-18c-1-1.2-1-2.9.2-4l11.2-10.1c1.2-1 2.9-1 4 .2l16.3 18c.5.6.8 1.3.7 2 0 .8-.4 1.4-.9 2l-11.2 10.1c-.6.4-1.2.7-1.9.7zm-5.1-32.1c-.3 0-.5.1-.7.3l-11.2 10.1c-.5.4-.5 1.1-.1 1.6l16.3 18c.2.2.5.3.8.4.3 0 .6-.1.8-.3l11.2-10.1c.2-.2.3-.5.4-.8 0-.3-.1-.6-.3-.8l-16.3-18c-.3-.2-.6-.4-.9-.4z" fill="url(#A)"/><defs><path id="G" d="M196.9 101.6s-6.7 7.2-16.7 2.8c-6.6-2.9-14.2-2.3-20.2 1.7l-16.9 11.2c-1.6 1.1-2.7 2.9-2.6 4.9 0 1.6.8 3.2 3.5 3.6 1.3.2 2.7 0 3.9-.5l16.2-6.7c.7-.3 1.6 0 2 .7 1.1 2.2 4.9 6.3 16.8 6.6.4 0 .7 0 1.1.1 2.8.2 17.5.9 25-10.8l-12.1-13.6z"/></defs><clipPath id="H"><use xlink:href="#G"/></clipPath><g class="I H"><path d="M203.3 93.5h8.7v9.6h-8.7z"/></g><g class="I H"><path d="M203.3 103.1h8.7v9.6h-8.7z"/></g><g class="I H"><path d="M203.3 112.7h8.7v9.6h-8.7z"/></g><g class="I H"><path d="M203.3 122.3h8.7v9.6h-8.7z"/></g><g class="I H"><path d="M194.6 93.5h8.7v9.6h-8.7z"/></g><g class="I H"><path d="M194.6 103.1h8.7v9.6h-8.7z"/></g><g class="I H"><path d="M194.6 112.7h8.7v9.6h-8.7z"/></g><g class="I H"><path d="M194.6 122.3h8.7v9.6h-8.7z"/></g><g class="I H"><path d="M185.9 93.5h8.7v9.6h-8.7z"/></g><g class="I H"><path d="M185.9 103.1h8.7v9.6h-8.7z"/></g><g class="I H"><path d="M185.9 112.7h8.7v9.6h-8.7z"/></g><g class="I H"><path d="M185.9 122.3h8.7v9.6h-8.7z"/></g><g class="I H"><path d="M177.2 93.5h8.7v9.6h-8.7z"/></g><g class="I H"><path d="M177.2 103.1h8.7v9.6h-8.7z"/></g><g class="I H"><path d="M177.2 112.7h8.7v9.6h-8.7z"/></g><g class="I H"><path d="M177.2 122.3h8.7v9.6h-8.7z"/></g><g class="I H"><path d="M168.5 93.5h8.7v9.6h-8.7z"/></g><g class="I H"><path d="M168.5 103.1h8.7v9.6h-8.7z"/></g><g class="I H"><path d="M168.5 112.7h8.7v9.6h-8.7z"/></g><g class="I H"><path d="M168.5 122.3h8.7v9.6h-8.7z"/></g><g class="I H"><path d="M159.9 93.5h8.7v9.6h-8.7z"/></g><g class="I H"><path d="M159.9 103.1h8.7v9.6h-8.7z"/></g><g class="I H"><path d="M159.9 112.7h8.7v9.6h-8.7z"/></g><g class="I H"><path d="M159.9 122.3h8.7v9.6h-8.7z"/></g><g class="I H"><path d="M151.2 93.5h8.7v9.6h-8.7z"/></g><g class="I H"><path d="M151.2 103.1h8.7v9.6h-8.7z"/></g><g class="I H"><path d="M151.2 112.7h8.7v9.6h-8.7z"/></g><g class="I H"><path d="M151.2 122.3h8.7v9.6h-8.7z"/></g><g class="I H"><path d="M142.5 93.5h8.7v9.6h-8.7z"/></g><g class="I H"><path d="M142.5 103.1h8.7v9.6h-8.7z"/></g><g class="I H"><path d="M142.5 112.7h8.7v9.6h-8.7z"/></g><g class="I H"><path d="M142.5 122.3h8.7v9.6h-8.7z"/></g><g class="I H"><path d="M133.8 93.5h8.7v9.6h-8.7z"/></g><g class="I H"><path d="M133.8 103.1h8.7v9.6h-8.7z"/></g><g class="I H"><path d="M133.8 112.7h8.7v9.6h-8.7z"/></g><g class="I H"><path d="M133.8 122.3h8.7v9.6h-8.7z"/></g><path d="M186.4 127c-1.1 0-1.9-.1-2.4-.1-.3 0-.7 0-1-.1-12.3-.3-16.4-4.6-17.7-7.1-.1-.3-.4-.4-.7-.3l-16.2 6.7c-1.5.6-3 .8-4.5.6-2.7-.4-4.3-2-4.4-4.6-.1-2.2 1.1-4.4 3.1-5.7l16.9-11.2c6.3-4.2 14.2-4.8 21.1-1.8 9.2 4.1 15.4-2.5 15.5-2.6l.7-.8 13.4 14.8-.4.6c-6.3 10.3-17.9 11.6-23.4 11.6zm-21.6-9.6c.9 0 1.8.5 2.3 1.4.9 1.7 4.3 5.8 16 6.1.4 0 .8 0 1.2.1 2.7.2 16.4.8 23.7-9.7l-10.9-12.1c-2.2 1.8-8.5 6.1-17 2.3-6.3-2.8-13.5-2.2-19.2 1.6L144 118.3c-1.4.9-2.2 2.4-2.2 4s.9 2.4 2.6 2.6c1.1.2 2.3 0 3.4-.5l16.2-6.7c.1-.2.4-.3.8-.3z" class="M"/><defs><path id="I" d="M164.9 119.1l-10.5 11.3c-1.1 1.2-2.7 1.9-4.3 1.7-1-.1-2.1-.5-2.8-1.5-1.5-2.1-.5-5.1 2-6l15.5-5.8c.1 0 .2.2.1.3z"/></defs><clipPath id="J"><use xlink:href="#I"/></clipPath><g class="K H"><path d="M159.9 112.7h8.7v9.6h-8.7z"/></g><g class="K H"><path d="M159.9 122.3h8.7v9.6h-8.7z"/></g><g class="K H"><path d="M159.9 131.9h8.7v9.6h-8.7z"/></g><g class="K H"><path d="M151.2 112.7h8.7v9.6h-8.7z"/></g><g class="K H"><path d="M151.2 122.3h8.7v9.6h-8.7z"/></g><g class="K H"><path d="M151.2 131.9h8.7v9.6h-8.7z"/></g><g class="K H"><path d="M142.5 112.7h8.7v9.6h-8.7z"/></g><g class="K H"><path d="M142.5 122.3h8.7v9.6h-8.7z"/></g><g class="K H"><path d="M142.5 131.9h8.7v9.6h-8.7z"/></g><g class="M"><path d="M150.4 133.2h-.5c-1.5-.1-2.7-.8-3.5-1.9-.9-1.2-1.1-2.8-.6-4.2.5-1.5 1.6-2.7 3.1-3.3l15.5-5.8c.5-.2 1.1 0 1.4.5s.3 1.1-.1 1.5l-10.5 11.3c-1.3 1.1-3 1.9-4.8 1.9zm11.4-12.2l-12.2 4.6c-.9.3-1.6 1.1-1.9 2s-.1 1.8.4 2.5c.5.6 1.1 1 2 1.1a4.27 4.27 0 0 0 3.5-1.4l8.2-8.8zm2.3-2.6h0z"/><path d="M165.8 119.8h-.2c-.5-.1-.9-.6-.8-1.1 0-.1 0-.2.1-.3.5-2.7 3.1-4.5 5.9-4.1l11.9 1.5c.5.1.9.6.9 1.1s-.6.9-1.1.9l-11.9-1.5c-1.7-.2-3.3.9-3.7 2.5v.2c-.2.5-.6.8-1.1.8zm46.8-29.1l9.7 10.7c2.5 2.8 2.3 7.2-.5 9.7l-3.9 3.5c-2.8 2.5-7.2 2.3-9.7-.5l-9.7-10.7c-2.5-2.8-2.3-7.2.5-9.7l3.9-3.5c2.8-2.6 7.2-2.3 9.7.5z"/></g><path d="M213 119.3h-.1c-.8 0-1.4-.4-2-.9l-16.3-18c-.5-.6-.8-1.3-.7-2 0-.8.4-1.4.9-2L206 86.3c.6-.5 1.3-.8 2-.7.8 0 1.4.4 2 .9l16.3 18c.5.6.8 1.3.7 2 0 .8-.4 1.4-.9 2l-11.2 10.1c-.5.4-1.2.7-1.9.7zm-5.1-32.1c-.3 0-.5.1-.7.3L196 97.6c-.2.2-.3.5-.4.8 0 .3.1.6.3.8l16.3 18c.4.5 1.1.5 1.6.1l11.2-10.1c.2-.2.3-.5.4-.8 0-.3-.1-.6-.3-.8l-16.3-18c-.3-.2-.6-.3-.9-.4z" fill="url(#A)"/><circle cx="170.4" cy="143.9" r="13.9" fill="#fff"/><g fill="url(#B)"><path d="M170.4 158.7c-8.1 0-14.8-6.6-14.8-14.8 0-8.1 6.6-14.8 14.8-14.8 8.1 0 14.8 6.6 14.8 14.8-.1 8.2-6.7 14.8-14.8 14.8zm0-27.8c-7.2 0-13 5.8-13 13s5.8 13 13 13 13-5.8 13-13-5.8-13-13-13z"/><path d="M168.8 148.8c-.5-.1-.9-.3-1.3-.6s-.8-.6-1.2-1l1.1-1.4c.4.5.8.8 1.3 1.1.5.2 1 .4 1.6.4.8 0 1.4-.2 1.7-.5.4-.3.6-.8.6-1.4h0c0-.4-.1-.7-.3-.9s-.4-.4-.7-.5-.7-.2-1.1-.3h-.1-.1c-.7-.1-1.3-.3-1.8-.5s-.8-.5-1.2-.9c-.3-.4-.5-1.1-.5-1.9h0c0-.8.1-1.5.4-2a3.04 3.04 0 0 1 1.3-1.2c.6-.3 1.3-.4 2.2-.4.4 0 .8 0 1.1.1.4.1.7.2 1.1.4l1.1.6-1 1.4c-.4-.3-.8-.5-1.2-.6s-.8-.2-1.1-.2c-.7 0-1.3.1-1.6.4-.4.3-.5.7-.5 1.3h0a1.69 1.69 0 0 0 .3 1c.2.2.5.4.8.5s.7.2 1.3.3h.1.1.1.1c.6.1 1.2.3 1.6.5a2.59 2.59 0 0 1 1.1 1c.3.5.4 1.1.4 1.9h0c0 .8-.2 1.4-.5 1.9s-.8.9-1.4 1.2-1.4.4-2.3.4c-.6.1-1.1 0-1.5-.1zm.8-13.4h1.7v1.9h-1.7v-1.9zm0 12.9h1.7v2h-1.7v-2z"/><path d="M170.4 156.1c-6.7 0-12.2-5.5-12.2-12.2s5.5-12.2 12.2-12.2 12.2 5.5 12.2 12.2c-.1 6.7-5.5 12.2-12.2 12.2zm0-24c-6.5 0-11.9 5.3-11.9 11.9s5.3 11.9 11.9 11.9 11.9-5.3 11.9-11.9-5.4-11.9-11.9-11.9z"/></g></svg>