<svg xmlns="http://www.w3.org/2000/svg" xmlns:xlink="http://www.w3.org/1999/xlink" viewBox="0 0 350 350" xmlns:v="https://vecta.io/nano"><style><![CDATA[.J{overflow:visible}.K{stroke-miterlimit:10}.L{stroke:url(#B)}.M{stroke-width:2}.N{stroke-linecap:round}]]></style><pattern y="350" width="30.4" height="33.6" patternUnits="userSpaceOnUse" id="A" viewBox="0 -33.6 30.4 33.6" class="J"><path d="M0-33.6h30.4V0H0z" fill="#1976d2"/></pattern><pattern y="350" width="30.4" height="33.6" patternUnits="userSpaceOnUse" id="B" viewBox="0 -33.6 30.4 33.6" class="J"><path d="M0-33.6h30.4V0H0z" fill="#105fa0"/></pattern><pattern y="350" width="30.4" height="33.6" patternUnits="userSpaceOnUse" id="C" viewBox="0 -33.6 30.4 33.6" class="J"><path d="M0-33.6h30.4V0H0z" fill="#6bb0e8"/></pattern><pattern y="350" width="30.4" height="33.6" patternUnits="userSpaceOnUse" id="D" viewBox="0 -33.6 30.4 33.6" class="J"><path d="M0-33.6h30.4V0H0z" fill="#b4d3ed"/></pattern><pattern id="E" xlink:href="#C" patternTransform="matrix(1 0 0 1 -8.1252 -23.7426)"/><g class="K"><path d="M 234.2 172.9 L 234.2 191.2 L 163.7 191.2 L 163.7 189.7 L 163.9 190.3 L 215.4 172.9 Z" fill="url(#E)" class="L M"/><path d="M220.6 173.3v17.4m-7.2-16.7v8m-12.9-3.7v4m24.6-4h5.6m-5.6 7.7h5.6" fill="none" stroke="#1976d2" stroke-width="3" class="N"/></g><pattern id="F" xlink:href="#C" patternTransform="matrix(1 0 0 1 -8.1252 -23.7426)"/><g class="K"><path d="    M222.4,150.8C222.5,150.8,222.5,150.8,222.4,150.8l-34,11.8c0,0,0,0,0,0c3.3-3.2,5.9-7.2,7.5-11.7c0,0,0,0,0,0L222.4,150.8z" fill="url(#F)" class="L M"/><path d="M198.1,139.4c-0.5-15.9-13.6-28.7-29.5-28.9c-16.7-0.2-30.3,13.3-30.3,29.9c0,15.6,12,28.5,27.3,29.8     l15.8-5.3l0,0l7-2.4c0,0,0,0,0,0c3.5-3.2,6.2-7.2,7.9-11.7C197.6,147.3,198.2,143.5,198.1,139.4z M169.7,150.9c-0.1,0-0.1,0-0.2,0     c-6.2-0.2-11.2-5.2-11.6-11.3c0-0.4,0-0.8,0-1.1c0.1-5.7,4.9-10.2,10.6-10.1c0.1,0,0.1,0,0.2,0c6.2,0.2,11.2,5.2,11.6,11.3     c0,0.4,0,0.8,0,1.1C180.1,146.5,175.4,151,169.7,150.9z" fill="#6bb0e8" stroke="url(#A)" stroke-width="4"/></g><path d="M178.7 147.2c-2.3 2.7-5.4 4.4-9.2 4.4-6.8 0-12.4-5.5-12.4-12.3 0-4 1.4-7 4.3-9.2-1.8 2.2-2.4 4.4-2.4 7.5 0 6.8 5.5 12.3 12.3 12.3 2.8 0 5.3-1 7.4-2.7z" fill="#105fa0"/><path d="M167.8 118.7l2.3.1c11.9.4 20.5 10.8 19.5 22" fill="none" stroke="#fff" stroke-width="4" class="K N"/><pattern id="G" xlink:href="#D" patternTransform="matrix(1 0 0 1 -8.1252 -23.7426)"/><g class="K"><path d="M 227.6 168.4 L 214.7 172.8 L 163.3 190.2 L 163.1 189.7 L 157.4 172.8 L 165 170.2 L 180.7 164.9 L 180.7 164.9 L 187.7 162.5 L 187.7 162.5 L 221.8 151 Z" fill="url(#G)" class="L M"/><path d="M164.2 170.5l2.8 8.5m3.4-10.5l1.1 3.4m11.2-7.3l1.1 3.4m11.1-7.5l1.1 3.4m11-7.6l1.1 3.4m-31.6 6.9l2.8 8.5m9.4-12.6l2.8 8.5m9.4-12.7l2.8 8.5m9.5-12.8l2.8 8.5m-15.5-11.1v6.7m6.4-6.7v4.5m6.5-4.6v2.4m-6.4 22.4v2.4" fill="none" stroke="#1976d2" stroke-width="3" class="N"/></g></svg>