<svg xmlns="http://www.w3.org/2000/svg" viewBox="0 0 350 350" xmlns:v="https://vecta.io/nano"><path d="M158 112.9l6.2 6.2 62.5 61.3c1.7 1.7 1.7 4.4 0 6.1l-13 13c-1.7 1.7-4.4 1.7-6.1 0l-62.5-61.3-6.2-6.2c-1.7-1.7-1.7-4.4 0-6.1l13-13c1.7-1.6 4.4-1.7 6.1 0z" fill="#1976d2"/><path d="M146.7 139.7l7.8-7.8m2.7 18.3l7.9-7.8m23.2 37.7l7.9-7.9m3.6 19.4l7.9-7.9" fill="none" stroke="#fff" stroke-linecap="round" stroke-miterlimit="10"/><path d="M222.3 130.7l-5.6 6.7-46.5 56.3-20.9-17 46.7-56.6 5.6-6.7c1.5-1.8 4.2-2.1 6.1-.5l14.1 11.8c1.7 1.4 2 4.2.5 6z" fill="#6bb0e8"/><path d="M222.3 130.7l-5.6 6.7-20.7-17.3 5.6-6.7c1.5-1.8 4.2-2.1 6.1-.5l14.1 11.8c1.7 1.4 2 4.2.5 6z" fill="#105fa0"/><path d="M149.3 176.7l-2.6 23.8 23.5-6.8z" fill="#b4d3ed"/><path d="M146.7 200.5l.8-7.8 7.2 5.5z" fill="#040404"/></svg>