<svg xmlns="http://www.w3.org/2000/svg" viewBox="0 0 350 350" xmlns:v="https://vecta.io/nano"><pattern y="350" width="30.4" height="33.6" patternUnits="userSpaceOnUse" id="A" viewBox="0 -33.6 30.4 33.6" overflow="visible"><path d="M0-33.6h30.4V0H0z" fill="#105fa0"/></pattern><path d="M231.2 200h-14.3c-.4 0-.8-.3-.8-.8v-69.3c0-.4.3-.8.8-.8h14.3c.4 0 .8.3.8.8v69.3c0 .5-.3.8-.8.8z" fill="#1e93e2"/><path d="M139.2 128.9l37.7-22.8 39 23.2v70h-77.3z" fill="#fff"/><path d="M216.6 200h-78.8l.6-71.5.4-.2 38-23.1 39.8 23.7V200zm-77.3-1.5h75.8v-68.8l-38.3-22.8-36.9 22.4-.6 69.2z" fill="url(#A)"/><path d="M150.9 135.3h53.6v64h-53.6z" fill="#b4d3ed"/><path d="M205.3 200h-55.1v-65.4h55.1V200zm-53.6-1.5h52.2V136h-52.2v62.5z" fill="url(#A)"/><path d="M183.8 123.1h-14.9c-1.2 0-2.1-.9-2.1-2.1h0c0-1.2.9-2.1 2.1-2.1h14.9c1.2 0 2.1.9 2.1 2.1h0c0 1.2-1 2.1-2.1 2.1z" fill="#0e629b"/><path d="M176.6 130.3H169c-1.2 0-2.1-.9-2.1-2.1h0c0-1.2.9-2.1 2.1-2.1h7.6c1.2 0 2.1.9 2.1 2.1h0c0 1.1-1 2.1-2.1 2.1zm7.9 0h-2.4c-1.2 0-2.1-.9-2.1-2.1h0c0-1.2.9-2.1 2.1-2.1h2.4c1.2 0 2.1.9 2.1 2.1h0c0 1.1-1 2.1-2.1 2.1z" fill="#105fa0"/><path d="M159.4 152h16.2v14.2h-16.2z" fill="#1976d2"/><path d="M175.5 152h6.6v14.2h-6.6z" fill="#105fa0"/><path d="M154.4 166.2h16.2v14.2h-16.2z" fill="#1e93e2"/><path d="M170.6 166.2h6.6v14.2h-6.6z" fill="#105fa0"/><path d="M152.8 180.4h19.7v18h-19.7z" fill="#6bb0e8"/><path d="M172.5 180.4h8v18h-8z" fill="#105fa0"/><path d="M180.6 180.4h15.5v18h-15.5z" fill="#6bb0e8"/><path d="M196.1 180.4h6.3v18h-6.3z" fill="#105fa0"/><path d="M177 166.2h16.2v14.2H177z" fill="#1e93e2"/><path d="M193.2 166.2h6.6v14.2h-6.6z" fill="#105fa0"/><path d="M176.9 105.1h16.4l38.3 23.9c.1 0 0 .2 0 .2H216l-39.1-23.9c-.1 0 0-.2 0-.2z" fill="#0e629b"/><path d="M243.6 200.2h-125c-.5 0-.9-.4-.9-.9s.4-.9.9-.9h125c.5 0 .9.4.9.9s-.4.9-.9.9z" fill="#231f20"/></svg>